<?xml version='1.0' encoding='utf-8'?>
<svg xmlns="http://www.w3.org/2000/svg" width="1920" height="1080" viewBox="0 0 1920 1080" data-theme="light" data-semantic-intent="sequence" data-relation-type="sequence" data-site-visual-identity="signal-cobalt">
  <style>
        @font-face {
            font-family: 'Inter';
            src: url('assets/fonts/Inter-Regular.ttf') format('truetype');
            font-weight: 400;
            font-style: normal;
            font-display: swap;
        }
        @font-face {
            font-family: 'Inter';
            src: url('assets/fonts/Inter-Bold.ttf') format('truetype');
            font-weight: 600;
            font-style: normal;
            font-display: swap;
        }
        @font-face {
            font-family: 'Inter';
            src: url('assets/fonts/Inter-Bold.ttf') format('truetype');
            font-weight: 800;
            font-style: normal;
            font-display: swap;
        }
        
:root {
    --background: #f8fafc;
    --panel: #ffffff;
    --primary-text: #0f172a;
    --muted-text: #64748b;
    --inverse-text: #ffffff;
    --border: #e2e8f0;
    --shadow-color: #000000;
    --icon-pad-bg: #1e293b;
    --art-glow: #0891b2;
    --art-glow-opacity: 0.10;
    --art-sheen: #ffffff;
    --art-sheen-opacity: 0.34;
    --art-shadow: #0f172a;
    --art-shadow-opacity: 0.14;
    --art-muted-line: #94a3b8;
    --art-panel-tint: #f1f5f9;
    --semantic-risk: #b91c1c;
    --semantic-warning: #c2410c;
    --semantic-uncertain: #a16207;
    --semantic-evidence: #1d4ed8;
    --semantic-claim: #6d28d9;
    --semantic-positive: #15803d;
    --semantic-outcome: #0e7490;
    --font-family: 'Inter', 'Segoe UI', 'Kalam', Roboto, Helvetica, Arial, sans-serif;
    --radius-xl: 16px;
    --font-family-headline: 'Segoe UI Variable Display', 'Aptos Display', 'Inter', 'Segoe UI', Helvetica, Arial, sans-serif;
    --font-family-body: 'Segoe UI Variable Text', 'Aptos', 'Inter', 'Segoe UI', Helvetica, Arial, sans-serif;
    --font-heading: var(--font-family-headline);
    --font-body: var(--font-family-body);
    --font-size-h1: 64px;
    --font-size-h2: 42px;
    --font-size-h3: 29px;
    --font-size-body: 21px;
    --font-size-caption: 17px;
    --secondary-text: var(--muted-text);
    --panel-border: var(--border);
    --font-weight-normal: 400;
    --font-weight-medium: 500;
    --font-weight-semibold: 600;
    --font-weight-bold: 700;
    --spacing-gutter-pct: 0.07;
    --spacing-top-pct: 0.15;
    --spacing-bottom-pct: 0.07;
    --spacing-title-y-pct: 0.055;
    --accent-1: #1d4ed8;
    --accent-2: #2563eb;
    --accent-3: #4f46e5;
    --accent-4: #6d28d9;
    --accent-5: #0369a1;
    --accent-6: #c2410c;
}
:root[data-theme="dark"] {
    --background: #0f172a;
    --panel: #1e293b;
    --primary-text: #f1f5f9;
    --muted-text: #94a3b8;
    --inverse-text: #0f172a;
    --border: #334155;
    --shadow-color: #000000;
    --icon-pad-bg: #1e293b;
    --art-glow: #7dd3fc;
    --art-glow-opacity: 0.18;
    --art-sheen: #ffffff;
    --art-sheen-opacity: 0.18;
    --art-shadow: #000000;
    --art-shadow-opacity: 0.28;
    --art-muted-line: #64748b;
    --art-panel-tint: #1e293b;
    --semantic-risk: #f87171;
    --semantic-warning: #fb923c;
    --semantic-uncertain: #fbbf24;
    --semantic-evidence: #60a5fa;
    --semantic-claim: #c084fc;
    --semantic-positive: #4ade80;
    --semantic-outcome: #22d3ee;
    --accent-1: #93c5fd;
    --accent-2: #60a5fa;
    --accent-3: #818cf8;
    --accent-4: #a78bfa;
    --accent-5: #38bdf8;
    --accent-6: #fb923c;
}
:root[data-theme="light"] {
    --background: #f8fafc;
    --panel: #ffffff;
    --primary-text: #0f172a;
    --muted-text: #64748b;
    --inverse-text: #ffffff;
    --border: #e2e8f0;
    --shadow-color: #000000;
    --icon-pad-bg: #1e293b;
    --art-glow: #0891b2;
    --art-glow-opacity: 0.10;
    --art-sheen: #ffffff;
    --art-sheen-opacity: 0.34;
    --art-shadow: #0f172a;
    --art-shadow-opacity: 0.14;
    --art-muted-line: #94a3b8;
    --art-panel-tint: #f1f5f9;
    --semantic-risk: #b91c1c;
    --semantic-warning: #c2410c;
    --semantic-uncertain: #a16207;
    --semantic-evidence: #1d4ed8;
    --semantic-claim: #6d28d9;
    --semantic-positive: #15803d;
    --semantic-outcome: #0e7490;
    --accent-1: #1d4ed8;
    --accent-2: #2563eb;
    --accent-3: #4f46e5;
    --accent-4: #6d28d9;
    --accent-5: #0369a1;
    --accent-6: #c2410c;
}</style>
  <rect x="0" y="0" width="1.92E+3" height="1.08E+3" fill="#f8fafc" stroke="none" id="programmatic_background"/>
  <line id="HEADER_DECOR" x1="960.0" x2="1080.0" y1="135.0" y2="135.0" stroke="var(--accent-1)" stroke-width="6" stroke-linecap="round"/>
  <defs>
    <pattern id="svgd68209ef-napkin-hatch" patternUnits="userSpaceOnUse" width="12" height="12">
      <path d="M -3 12 L 12 -3 M 0 15 L 15 0" fill="none" stroke="var(--primary-text)" stroke-width="1" stroke-opacity="0.05"/>
    </pattern>
    <filter id="svgd68209ef-shadow" x="-30%" y="-30%" width="160%" height="160%">
      <feDropShadow dx="0" dy="2" stdDeviation="3" flood-color="#000000" flood-opacity="0.08"/>
      <feDropShadow dx="0" dy="6" stdDeviation="10" flood-color="#000000" flood-opacity="0.12"/>
    </filter>
    <radialGradient id="svgd68209ef-universal-edge-vignette" cx="50%" cy="50%" r="72%">
      <stop offset="0%" stop-color="var(--background)" stop-opacity="0"/>
      <stop offset="72%" stop-color="var(--background)" stop-opacity="0.12"/>
      <stop offset="100%" stop-color="var(--primary-text)" stop-opacity="0.08"/>
    </radialGradient>
    <linearGradient id="svgd68209ef-universal-surface-sheen" x1="0%" y1="0%" x2="100%" y2="100%">
      <stop offset="0%" stop-color="var(--art-sheen)" stop-opacity="var(--art-sheen-opacity)"/>
      <stop offset="46%" stop-color="var(--art-sheen)" stop-opacity="0.035"/>
      <stop offset="100%" stop-color="var(--art-panel-tint)" stop-opacity="0.14"/>
    </linearGradient>
    <radialGradient id="svgd68209ef-universal-icon-aura" cx="50%" cy="42%" r="64%">
      <stop offset="0%" stop-color="var(--art-glow)" stop-opacity="var(--art-glow-opacity)"/>
      <stop offset="100%" stop-color="var(--background)" stop-opacity="0"/>
    </radialGradient>
    <filter id="svgd68209ef-text-glow" x="-20%" y="-20%" width="140%" height="140%">
      <feDropShadow dx="0" dy="0" stdDeviation="2" flood-color="#000000" flood-opacity="0.4"/>
    </filter>
    <marker id="svgd68209ef-arrowhead" markerWidth="10" markerHeight="7" refX="9" refY="3.5" orient="auto" markerUnits="strokeWidth">
      <polygon points="0 0, 10 3.5, 0 7" fill="var(--muted-text)" opacity="0.6"/>
    </marker>
    <marker id="svgd68209ef-PHX_SEQUENCE_DIRECTION_ARROW" markerWidth="18" markerHeight="18" refX="16" refY="9" orient="auto" markerUnits="userSpaceOnUse">
      <path d="M 0 0 L 18 9 L 0 18 Z" fill="var(--muted-text)" opacity="0.9"/>
    </marker>
  </defs>
  <rect width="100%" height="100%" fill="var(--background)" id="CANVAS_BG"/>
  <rect width="100%" height="100%" fill="url(#svgd68209ef-napkin-hatch)"/>
  <rect id="UNIVERSAL_EDGE_VIGNETTE" width="100%" height="100%" fill="url(#svgd68209ef-universal-edge-vignette)" opacity="0.62"/>
  <text id="TITLE" x="960.0" y="59" text-anchor="middle" font-size="63" font-weight="700" fill="#0f172a" style="font-size: 69px; font-family: 'Segoe UI Variable Display', 'Aptos Display', 'Inter', 'Segoe UI', Helvetica, Arial, sans-serif; font-weight: 800; font-kerning: normal; font-feature-settings: &quot;kern&quot; 1, &quot;liga&quot; 1; letter-spacing:-1.2px;" data-final-font-size="69">
    <tspan x="960.0" dy="70.47px">Rendlesham Forest Archive Expansion Time line</tspan>
  </text>
  <rect id="TITLE_FRAME" x="134" y="59" width="1652" height="103" fill="none"/>
  <g id="DIAGRAM_SCALER">
    <line x1="960" y1="200" x2="960" y2="960" stroke="var(--accent-1)" stroke-width="34" stroke-linecap="round" opacity="0.055" marker-end="url(#svgd68209ef-PHX_SEQUENCE_DIRECTION_ARROW)" data-direction-cue="forward"/>
    <line x1="960" y1="200" x2="960" y2="960" stroke="var(--accent-1)" stroke-width="34" stroke-linecap="round" opacity="0.055"/>
    <line x1="960" y1="200" x2="960" y2="960" stroke="var(--accent-1)" stroke-width="34" stroke-linecap="round" opacity="0.055"/>
    <line x1="960" y1="200" x2="960" y2="960" stroke="var(--accent-1)" stroke-width="34" stroke-linecap="round" opacity="0.055"/>
    <line x1="960" y1="200" x2="960" y2="960" stroke="var(--accent-1)" stroke-width="34" stroke-linecap="round" opacity="0.055"/>
    <line x1="960" y1="200" x2="960" y2="960" stroke="var(--accent-1)" stroke-width="34" stroke-linecap="round" opacity="0.055"/>
    <line x1="960" y1="200" x2="960" y2="960" stroke="var(--accent-1)" stroke-width="34" stroke-linecap="round" opacity="0.055"/>
    <line x1="960" y1="200" x2="960" y2="960" stroke="var(--accent-1)" stroke-width="34" stroke-linecap="round" opacity="0.055"/>
    <line x1="960" y1="200" x2="960" y2="960" stroke="var(--accent-1)" stroke-width="34" stroke-linecap="round" opacity="0.055"/>
    <line x1="960" y1="200" x2="960" y2="960" stroke="var(--accent-1)" stroke-width="34" stroke-linecap="round" opacity="0.055"/>
    <line x1="960" y1="200" x2="960" y2="960" stroke="var(--accent-1)" stroke-width="34" stroke-linecap="round" opacity="0.055"/>
    <line x1="960" y1="200" x2="960" y2="960" stroke="var(--accent-1)" stroke-width="34" stroke-linecap="round" opacity="0.055"/>
    <line x1="960" y1="200" x2="960" y2="960" stroke="var(--accent-1)" stroke-width="34" stroke-linecap="round" opacity="0.055"/>
    <line x1="960" y1="200" x2="960" y2="960" stroke="var(--accent-1)" stroke-width="34" stroke-linecap="round" opacity="0.055"/>
    <line x1="960" y1="200" x2="960" y2="960" stroke="var(--accent-1)" stroke-width="34" stroke-linecap="round" opacity="0.055"/>
    <line x1="960" y1="200" x2="960" y2="960" stroke="var(--accent-1)" stroke-width="34" stroke-linecap="round" opacity="0.055"/>
    <line x1="960" y1="200" x2="960" y2="960" stroke="var(--accent-1)" stroke-width="34" stroke-linecap="round" opacity="0.055"/>
    <line x1="960" y1="200" x2="960" y2="960" stroke="var(--accent-1)" stroke-width="34" stroke-linecap="round" opacity="0.055"/>
    <line x1="960" y1="200" x2="960" y2="960" stroke="var(--accent-1)" stroke-width="34" stroke-linecap="round" opacity="0.055"/>
    <line x1="960" y1="200" x2="960" y2="960" stroke="var(--accent-1)" stroke-width="34" stroke-linecap="round" opacity="0.055"/>
    <line x1="960" y1="200" x2="960" y2="960" stroke="var(--accent-1)" stroke-width="34" stroke-linecap="round" opacity="0.055"/>
    <line x1="960" y1="200" x2="960" y2="960" stroke="var(--accent-1)" stroke-width="34" stroke-linecap="round" opacity="0.055"/>
    <line x1="960" y1="200" x2="960" y2="960" stroke="var(--accent-1)" stroke-width="34" stroke-linecap="round" opacity="0.055"/>
    <line x1="960" y1="200" x2="960" y2="960" stroke="var(--accent-1)" stroke-width="34" stroke-linecap="round" opacity="0.055"/>
    <line x1="960" y1="200" x2="960" y2="960" stroke="var(--accent-1)" stroke-width="34" stroke-linecap="round" opacity="0.055"/>
    <line x1="960" y1="200" x2="960" y2="960" stroke="var(--accent-1)" stroke-width="34" stroke-linecap="round" opacity="0.055"/>
    <line x1="960" y1="200" x2="960" y2="960" stroke="var(--accent-1)" stroke-width="34" stroke-linecap="round" opacity="0.055"/>
    <line x1="960" y1="200" x2="960" y2="960" stroke="var(--accent-1)" stroke-width="34" stroke-linecap="round" opacity="0.055"/>
    <line x1="960" y1="200" x2="960" y2="960" stroke="var(--accent-1)" stroke-width="34" stroke-linecap="round" opacity="0.055"/>
    <line x1="960" y1="200" x2="960" y2="960" stroke="var(--border)" stroke-width="20" stroke-linecap="round" opacity="0.1"/>
    <line x1="960" y1="200" x2="960" y2="960" stroke="var(--muted-text)" stroke-width="7" stroke-linecap="round" opacity="0.48"/>
    <circle cx="960" cy="200" r="10" fill="var(--border)" opacity="0.35"/>
    <path d="M 960 992 L 980 960 L 940 960 Z" fill="var(--muted-text)" opacity="0.5"/>
    <g transform="translate(960, 240)">
      <circle cx="0" cy="0" r="18" fill="var(--panel)" stroke="var(--border)" stroke-width="4"/>
      <circle cx="0" cy="0" r="7" fill="var(--accent-1)"/>
      <line x1="0" y1="0" x2="220" y2="0" stroke="var(--accent-1)" stroke-width="16" stroke-linecap="round" opacity="0.18"/>
      <line x1="0" y1="0" x2="220" y2="0" stroke="var(--accent-1)" stroke-width="4" stroke-linecap="round"/>
      <circle cx="220" cy="0" r="60" fill="var(--accent-1)" opacity="0.14"/>
      <circle id="ITEM_1_NODE" cx="220" cy="0" r="48" fill="var(--panel)" stroke="var(--accent-1)" stroke-width="2" stroke-opacity="0.58" data-badge-layer="outline"/>
      <circle id="ITEM_1_PAD" cx="220" cy="0" r="42" fill="var(--icon-pad-bg)" stroke="var(--accent-1)" opacity="1" fill-opacity="0.9" stroke-width="2" stroke-opacity="0.72" data-badge-layer="pad"/>
      <circle id="ITEM_1_PAD_INNER" cx="220" cy="0" r="32.76" fill="var(--accent-1)" fill-opacity="0.12" stroke="none" data-badge-layer="tint"/>
      <circle cx="220" cy="0" r="32" fill="none" stroke="var(--accent-1)" stroke-width="3" stroke-dasharray="6 4" display="none" data-suppressed-decoration="redundant-badge-ring"/>
      <g id="ITEM_1_ICON" transform="translate(190, -30)" data-icon-size="60" stroke-linecap="round" stroke-linejoin="round" data-badge-treatment="clean">
        <g transform="translate(-8.826666666666668,-8.826666666666664) scale(3.2355555555555555)" vector-effect="non-scaling-stroke" fill="#f1f5f9" fill-opacity="1.0" stroke="none">
          <path fill="#f1f5f9" d="M10.85 2L9.18 4.5l1.14.75L7.14 10H7a2 2 0 0 0-2 2a2 2 0 0 0 1.58 1.95L10.62 20H7v2h10v-2h-4l-4.47-6.72A2 2 0 0 0 9 12c0-.3-.07-.6-.2-.87L12 6.37c-.22 1.68.75 3.52 2.45 4.63l4.44-6.63c-1.69-1.13-3.77-1.33-5.24-.5zm7.48 5l-1.66 2.5c.68.45 1.62.27 2.08-.42S19 7.46 18.33 7" vector-effect="non-scaling-stroke" stroke="none"/>
        </g>
      </g>
      <g transform="translate(332, 0)">
        <path id="ITEM_1_TEXT_BG" d="M -24 -46 L 374 -46 L 414 -8 L 414 140 L 30 140 L -46 82 L -46 16 Z" fill="var(--panel)" fill-opacity="0.96" stroke="var(--primary-text)" stroke-opacity="0.12" stroke-width="1.5" filter="url(#svgd68209ef-shadow)"/>
        <rect x="386" y="-28" width="10" height="104" rx="5" fill="var(--accent-1)" opacity="0.7"/>
        <line x1="22" y1="10" x2="348" y2="10" stroke="var(--accent-1)" stroke-width="3" opacity="0.3"/>
        <text id="ITEM_1_HEAD" data-bg-id="ITEM_1_TEXT_BG" font-weight="700" font-size="26" fill="var(--accent-1)" x="22.0" y="-28.0" fill-opacity="1.0" style="font-size: 31px; font-family: 'Segoe UI Variable Display', 'Aptos Display', 'Inter', 'Segoe UI', Helvetica, Arial, sans-serif; font-weight: 700; font-kerning: normal; font-feature-settings: &quot;kern&quot; 1, &quot;liga&quot; 1; letter-spacing:-0.4px;" data-final-font-size="31">
          <tspan x="22.0" dy="25.52px">Code Era</tspan>
        </text>
        <rect id="ITEM_1_HEAD_FRAME" x="22" y="-28" width="334" height="34" fill="none"/>
        <text id="ITEM_1_BODY" data-bg-id="ITEM_1_TEXT_BG" font-size="18.5" fill="var(--primary-text)" x="22.0" y="20.0" style="font-size: 19px; font-family: 'Segoe UI Variable Text', 'Aptos', 'Inter', 'Segoe UI', Helvetica, Arial, sans-serif; font-weight: 400; font-kerning: normal; font-feature-settings: &quot;kern&quot; 1, &quot;liga&quot; 1;" data-final-font-size="19">
          <tspan x="22.0" dy="20.10px">Non-statutory Code of Practice allows</tspan>
          <tspan x="22.0" dy="23.75px">voluntary government disclosure</tspan>
        </text>
        <rect id="ITEM_1_BODY_FRAME" x="22" y="20" width="352" height="72" fill="none"/>
      </g>
    </g>
    <g transform="translate(960, 395)">
      <circle cx="0" cy="0" r="18" fill="var(--panel)" stroke="var(--border)" stroke-width="4"/>
      <circle cx="0" cy="0" r="7" fill="var(--accent-2)"/>
      <line x1="0" y1="0" x2="-220" y2="0" stroke="var(--accent-2)" stroke-width="16" stroke-linecap="round" opacity="0.18"/>
      <line x1="0" y1="0" x2="-220" y2="0" stroke="var(--accent-2)" stroke-width="4" stroke-linecap="round"/>
      <circle cx="-220" cy="0" r="60" fill="var(--accent-2)" opacity="0.14"/>
      <circle id="ITEM_2_NODE" cx="-220" cy="0" r="48" fill="var(--panel)" stroke="var(--accent-2)" stroke-width="2" stroke-opacity="0.58" data-badge-layer="outline"/>
      <circle id="ITEM_2_PAD" cx="-220" cy="0" r="42" fill="var(--icon-pad-bg)" stroke="var(--accent-2)" opacity="1" fill-opacity="0.9" stroke-width="2" stroke-opacity="0.72" data-badge-layer="pad"/>
      <circle id="ITEM_2_PAD_INNER" cx="-220" cy="0" r="32.76" fill="var(--accent-2)" fill-opacity="0.12" stroke="none" data-badge-layer="tint"/>
      <circle cx="-220" cy="0" r="32" fill="none" stroke="var(--accent-2)" stroke-width="3" stroke-dasharray="6 4" display="none" data-suppressed-decoration="redundant-badge-ring"/>
      <g id="ITEM_2_ICON" transform="translate(-250, -30)" data-icon-size="60" stroke-linecap="round" stroke-linejoin="round" data-badge-treatment="clean">
        <g transform="translate(-5.5362711864406755,-5.5362711864406755) scale(2.9613559322033898)" vector-effect="non-scaling-stroke" stroke-width="2.43" stroke-linecap="round" stroke-linejoin="round" stroke-opacity="1.0">
          <path d="m14 13-8.381 8.38a1 1 0 0 1-3.001-3l8.384-8.381" vector-effect="non-scaling-stroke" fill="none" stroke="#f1f5f9"/>
          <path d="m16 16 6-6" vector-effect="non-scaling-stroke" fill="none" stroke="#f1f5f9"/>
          <path d="m21.5 10.5-8-8" vector-effect="non-scaling-stroke" fill="none" stroke="#f1f5f9"/>
          <path d="m8 8 6-6" vector-effect="non-scaling-stroke" fill="none" stroke="#f1f5f9"/>
          <path d="m8.5 7.5 8 8" vector-effect="non-scaling-stroke" fill="none" stroke="#f1f5f9"/>
        </g>
      </g>
      <g transform="translate(-332, 0)">
        <path id="ITEM_2_TEXT_BG" d="M 24 -46 L -374 -46 L -414 -8 L -414 140 L -30 140 L 46 82 L 46 16 Z" fill="var(--panel)" fill-opacity="0.96" stroke="var(--primary-text)" stroke-opacity="0.12" stroke-width="1.5" filter="url(#svgd68209ef-shadow)"/>
        <rect x="-396" y="-28" width="10" height="104" rx="5" fill="var(--accent-2)" opacity="0.7"/>
        <line x1="-22" y1="10" x2="-348" y2="10" stroke="var(--accent-2)" stroke-width="3" opacity="0.3"/>
        <text id="ITEM_2_HEAD" data-bg-id="ITEM_2_TEXT_BG" text-anchor="end" font-weight="700" font-size="26" fill="var(--accent-2)" x="-22.0" y="-28.0" fill-opacity="1.0" style="font-size: 31px; font-family: 'Segoe UI Variable Display', 'Aptos Display', 'Inter', 'Segoe UI', Helvetica, Arial, sans-serif; font-weight: 700; font-kerning: normal; font-feature-settings: &quot;kern&quot; 1, &quot;liga&quot; 1; letter-spacing:-0.4px;" data-final-font-size="31">
          <tspan x="-22.0" dy="25.52px">Ombudsman Ruling</tspan>
        </text>
        <rect id="ITEM_2_HEAD_FRAME" x="-356" y="-28" width="334" height="34" fill="none"/>
        <text id="ITEM_2_BODY" data-bg-id="ITEM_2_TEXT_BG" text-anchor="end" font-size="18.5" fill="var(--primary-text)" x="-22.0" y="20.0" style="font-size: 22px; font-family: 'Segoe UI Variable Text', 'Aptos', 'Inter', 'Segoe UI', Helvetica, Arial, sans-serif; font-weight: 400; font-kerning: normal; font-feature-settings: &quot;kern&quot; 1, &quot;liga&quot; 1;" data-final-font-size="22">
          <tspan x="-22.0" dy="21.88px">Parliamentary review forces</tspan>
          <tspan x="-22.0" dy="25.30px">disclosure of withheld documents</tspan>
        </text>
        <rect id="ITEM_2_BODY_FRAME" x="-374" y="20" width="352" height="72" fill="none"/>
      </g>
    </g>
    <g transform="translate(960, 550)">
      <circle cx="0" cy="0" r="18" fill="var(--panel)" stroke="var(--border)" stroke-width="4"/>
      <circle cx="0" cy="0" r="7" fill="var(--accent-3)"/>
      <line x1="0" y1="0" x2="220" y2="0" stroke="var(--accent-3)" stroke-width="16" stroke-linecap="round" opacity="0.18"/>
      <line x1="0" y1="0" x2="220" y2="0" stroke="var(--accent-3)" stroke-width="4" stroke-linecap="round"/>
      <circle cx="220" cy="0" r="60" fill="var(--accent-3)" opacity="0.14"/>
      <circle id="ITEM_3_NODE" cx="220" cy="0" r="48" fill="var(--panel)" stroke="var(--accent-3)" stroke-width="2" stroke-opacity="0.58" data-badge-layer="outline"/>
      <circle id="ITEM_3_PAD" cx="220" cy="0" r="42" fill="var(--icon-pad-bg)" stroke="var(--accent-3)" opacity="1" fill-opacity="0.9" stroke-width="2" stroke-opacity="0.72" data-badge-layer="pad"/>
      <circle id="ITEM_3_PAD_INNER" cx="220" cy="0" r="32.76" fill="var(--accent-3)" fill-opacity="0.12" stroke="none" data-badge-layer="tint"/>
      <circle cx="220" cy="0" r="32" fill="none" stroke="var(--accent-3)" stroke-width="3" stroke-dasharray="6 4" display="none" data-suppressed-decoration="redundant-badge-ring"/>
      <g id="ITEM_3_ICON" transform="translate(190, -30)" data-icon-size="60" stroke-linecap="round" stroke-linejoin="round" data-badge-treatment="clean">
        <g transform="translate(-6.238938053097343,-7.978407079646016) scale(2.31929203539823)">
          <path d="M3.27393 28.0227C3.46919 27.8274 3.78578 27.8274 3.98104 28.0227C4.1763 28.2179 4.1763 28.5345 3.98104 28.7298L2.56683 30.144C2.37156 30.3392 2.05498 30.3392 1.85972 30.144C1.66446 29.9487 1.66446 29.6321 1.85972 29.4369L3.27393 28.0227Z" fill="#402A32"/>
          <path d="M27.9001 8.10118C28.1994 7.95818 28.48 7.7627 28.7279 7.51475C29.8995 6.34318 29.8995 4.44369 28.7279 3.27211C27.5563 2.10054 25.6569 2.10054 24.4853 3.27211C24.2373 3.52006 24.0418 3.80062 23.8989 4.09998L23.7782 3.97928L13.5691 12.1405C13.5691 13.3175 12.5867 14.2613 11.4102 14.2259L11.3453 14.2909C11.1201 14.516 10.917 14.7621 10.7387 15.0258L3.62561 25.546L4.57008 27.5017L6.45404 28.3745L16.9743 21.2614C17.238 21.083 17.4841 20.8799 17.7092 20.6548L17.7785 20.5855L17.7879 20.2879C17.8223 19.1986 18.7607 18.3595 19.8471 18.4465L28.0208 8.22192L27.9001 8.10118Z" fill="#0074BA"/>
          <path d="M29.435 8.2218L24.4853 3.27209L23.7782 3.9792L28.7279 8.92892L23.4246 14.2322C23.2294 14.4275 23.2294 14.7441 23.4246 14.9393C23.6199 15.1346 23.9365 15.1346 24.1317 14.9393L29.435 9.63602C29.8256 9.24549 29.8256 8.61233 29.435 8.2218Z" fill="#F9C23C"/>
          <path d="M11.4038 14.2323L13.2026 12.4335L13.5611 12.1469L19.8531 18.439L19.5665 18.7975L17.7677 20.5963L11.4038 14.2323Z" fill="#F9C23C"/>
          <path d="M6.45225 28.3762L3.62382 25.5477L3.27027 25.9013C2.48922 26.6823 2.48922 27.9487 3.27027 28.7297C4.05131 29.5108 5.31764 29.5108 6.09869 28.7297L6.45225 28.3762Z" fill="#F9C23C"/>
        </g>
      </g>
      <g transform="translate(332, 0)">
        <path id="ITEM_3_TEXT_BG" d="M -24 -46 L 374 -46 L 414 -8 L 414 140 L 30 140 L -46 82 L -46 16 Z" fill="var(--panel)" fill-opacity="0.96" stroke="var(--primary-text)" stroke-opacity="0.12" stroke-width="1.5" filter="url(#svgd68209ef-shadow)"/>
        <rect x="386" y="-28" width="10" height="104" rx="5" fill="var(--accent-3)" opacity="0.7"/>
        <line x1="22" y1="10" x2="348" y2="10" stroke="var(--accent-3)" stroke-width="3" opacity="0.3"/>
        <text id="ITEM_3_HEAD" data-bg-id="ITEM_3_TEXT_BG" font-weight="700" font-size="26" fill="var(--accent-3)" x="22.0" y="-28.0" fill-opacity="1.0" style="font-size: 31px; font-family: 'Segoe UI Variable Display', 'Aptos Display', 'Inter', 'Segoe UI', Helvetica, Arial, sans-serif; font-weight: 700; font-kerning: normal; font-feature-settings: &quot;kern&quot; 1, &quot;liga&quot; 1; letter-spacing:-0.4px;" data-final-font-size="31">
          <tspan x="22.0" dy="25.52px">FOI Act</tspan>
        </text>
        <rect id="ITEM_3_HEAD_FRAME" x="22" y="-28" width="334" height="34" fill="none"/>
        <text id="ITEM_3_BODY" data-bg-id="ITEM_3_TEXT_BG" font-size="18.5" fill="var(--primary-text)" x="22.0" y="20.0" style="font-size: 21px; font-family: 'Segoe UI Variable Text', 'Aptos', 'Inter', 'Segoe UI', Helvetica, Arial, sans-serif; font-weight: 400; font-kerning: normal; font-feature-settings: &quot;kern&quot; 1, &quot;liga&quot; 1;" data-final-font-size="21">
          <tspan x="22.0" dy="21.54px">Statutory right of access replaces</tspan>
          <tspan x="22.0" dy="24.15px">voluntary disclosure code</tspan>
        </text>
        <rect id="ITEM_3_BODY_FRAME" x="22" y="20" width="352" height="72" fill="none"/>
      </g>
    </g>
    <g transform="translate(960, 705)">
      <circle cx="0" cy="0" r="18" fill="var(--panel)" stroke="var(--border)" stroke-width="4"/>
      <circle cx="0" cy="0" r="7" fill="var(--accent-4)"/>
      <line x1="0" y1="0" x2="-220" y2="0" stroke="var(--accent-4)" stroke-width="16" stroke-linecap="round" opacity="0.18"/>
      <line x1="0" y1="0" x2="-220" y2="0" stroke="var(--accent-4)" stroke-width="4" stroke-linecap="round"/>
      <circle cx="-220" cy="0" r="60" fill="var(--accent-4)" opacity="0.14"/>
      <circle id="ITEM_4_NODE" cx="-220" cy="0" r="48" fill="var(--panel)" stroke="var(--accent-1)" stroke-width="2" stroke-opacity="0.58" data-badge-layer="outline"/>
      <circle id="ITEM_4_PAD" cx="-220" cy="0" r="42" fill="var(--icon-pad-bg)" stroke="var(--accent-1)" opacity="1" fill-opacity="0.9" stroke-width="2" stroke-opacity="0.72" data-badge-layer="pad"/>
      <circle id="ITEM_4_PAD_INNER" cx="-220" cy="0" r="32.76" fill="var(--accent-1)" fill-opacity="0.12" stroke="none" data-badge-layer="tint"/>
      <circle cx="-220" cy="0" r="32" fill="none" stroke="var(--accent-4)" stroke-width="3" stroke-dasharray="6 4" display="none" data-suppressed-decoration="redundant-badge-ring"/>
      <g id="ITEM_4_ICON" transform="translate(-250, -30)" data-icon-size="60" stroke-linecap="round" stroke-linejoin="round" data-badge-treatment="clean">
        <g transform="translate(-7.439999999999998,-8.609999999999996) scale(2.34)">
          <path d="M22.5247 17.94C26.6502 17.94 29.9947 14.5956 29.9947 10.47C29.9947 6.34443 26.6502 3 22.5247 3C18.3991 3 15.0547 6.34443 15.0547 10.47C15.0547 14.5956 18.3991 17.94 22.5247 17.94Z" fill="#533566"/>
          <path d="M2.64445 29.2101C1.81445 28.3301 1.78446 26.9601 2.56446 26.0401L15.1045 11.3401L21.2145 17.8201L5.80445 29.4801C4.84445 30.2101 3.47445 30.0901 2.64445 29.2101Z" fill="#9B9B9B"/>
          <path d="M18.9958 4.00515L28.9358 14.5552C29.5958 15.2552 29.5658 16.3552 28.8658 17.0051C28.1658 17.6651 27.0758 17.6352 26.4158 16.9352L16.4758 6.38515C15.8158 5.68515 15.8458 4.59517 16.5458 3.93517C17.2458 3.27517 18.3358 3.30515 18.9958 4.00515ZM15.4146 18.5302C15.4146 19.342 14.7565 20.0002 13.9446 20.0002C13.1328 20.0002 12.4746 19.342 12.4746 18.5302C12.4746 17.7183 13.1328 17.0602 13.9446 17.0602C14.7565 17.0602 15.4146 17.7183 15.4146 18.5302Z" fill="#BEBEBE"/>
        </g>
      </g>
      <g transform="translate(-332, 0)">
        <path id="ITEM_4_TEXT_BG" d="M 24 -46 L -374 -46 L -414 -8 L -414 140 L -30 140 L 46 82 L 46 16 Z" fill="var(--panel)" fill-opacity="0.96" stroke="var(--primary-text)" stroke-opacity="0.12" stroke-width="1.5" filter="url(#svgd68209ef-shadow)"/>
        <rect x="-396" y="-28" width="10" height="104" rx="5" fill="var(--accent-4)" opacity="0.7"/>
        <line x1="-22" y1="10" x2="-348" y2="10" stroke="var(--accent-4)" stroke-width="3" opacity="0.3"/>
        <text id="ITEM_4_HEAD" data-bg-id="ITEM_4_TEXT_BG" text-anchor="end" font-weight="700" font-size="26" fill="var(--accent-1)" x="-22.0" y="-28.0" fill-opacity="1.0" style="font-size: 31px; font-family: 'Segoe UI Variable Display', 'Aptos Display', 'Inter', 'Segoe UI', Helvetica, Arial, sans-serif; font-weight: 700; font-kerning: normal; font-feature-settings: &quot;kern&quot; 1, &quot;liga&quot; 1; letter-spacing:-0.4px;" data-final-font-size="31">
          <tspan x="-22.0" dy="25.52px">Interview Records</tspan>
        </text>
        <rect id="ITEM_4_HEAD_FRAME" x="-356" y="-28" width="334" height="34" fill="none"/>
        <text id="ITEM_4_BODY" data-bg-id="ITEM_4_TEXT_BG" text-anchor="end" font-size="18.5" fill="var(--primary-text)" x="-22.0" y="20.0" style="font-size: 23px; font-family: 'Segoe UI Variable Text', 'Aptos', 'Inter', 'Segoe UI', Helvetica, Arial, sans-serif; font-weight: 400; font-kerning: normal; font-feature-settings: &quot;kern&quot; 1, &quot;liga&quot; 1;" data-final-font-size="23">
          <tspan x="-22.0" dy="22.22px">DEFE 24/1995/1 adds transcripts</tspan>
          <tspan x="-22.0" dy="26.45px">from Charles Halt</tspan>
        </text>
        <rect id="ITEM_4_BODY_FRAME" x="-374" y="20" width="352" height="72" fill="none"/>
      </g>
    </g>
    <g transform="translate(960, 860)">
      <circle cx="0" cy="0" r="18" fill="var(--panel)" stroke="var(--border)" stroke-width="4"/>
      <circle cx="0" cy="0" r="7" fill="var(--accent-5)"/>
      <line x1="0" y1="0" x2="220" y2="0" stroke="var(--accent-5)" stroke-width="16" stroke-linecap="round" opacity="0.18"/>
      <line x1="0" y1="0" x2="220" y2="0" stroke="var(--accent-5)" stroke-width="4" stroke-linecap="round"/>
      <circle cx="220" cy="0" r="60" fill="var(--accent-5)" opacity="0.14"/>
      <circle id="ITEM_5_NODE" cx="220" cy="0" r="48" fill="var(--panel)" stroke="var(--accent-2)" stroke-width="2" stroke-opacity="0.58" data-badge-layer="outline"/>
      <circle id="ITEM_5_PAD" cx="220" cy="0" r="42" fill="var(--icon-pad-bg)" stroke="var(--accent-2)" opacity="1" fill-opacity="0.9" stroke-width="2" stroke-opacity="0.72" data-badge-layer="pad"/>
      <circle id="ITEM_5_PAD_INNER" cx="220" cy="0" r="32.76" fill="var(--accent-2)" fill-opacity="0.12" stroke="none" data-badge-layer="tint"/>
      <circle cx="220" cy="0" r="32" fill="none" stroke="var(--accent-5)" stroke-width="3" stroke-dasharray="6 4" display="none" data-suppressed-decoration="redundant-badge-ring"/>
      <g id="ITEM_5_ICON" transform="translate(190, -30)" data-icon-size="60" stroke-linecap="round" stroke-linejoin="round" data-badge-treatment="clean">
        <g transform="translate(-2.759999999999998,-2.7599999999999985) scale(4.68)" vector-effect="non-scaling-stroke" stroke-width="2.43" stroke-linecap="round" stroke-linejoin="round" stroke-opacity="1.0">
          <path id="Vector" fill="none" d="M1.5 5h11v7c0 0.2652 -0.1054 0.5196 -0.2929 0.7071S11.7652 13 11.5 13h-9c-0.26522 0 -0.51957 -0.1054 -0.70711 -0.2929C1.60536 12.5196 1.5 12.2652 1.5 12V5Z" vector-effect="non-scaling-stroke" stroke="#f1f5f9"/>
          <path id="Vector_2" fill="none" d="M13.5 4V2c0 -0.55228 -0.4477 -1 -1 -1l-11 0c-0.552285 0 -1 0.44772 -1 1v2c0 0.55228 0.447715 1 1 1l11 0c0.5523 0 1 -0.44772 1 -1Z" vector-effect="non-scaling-stroke" stroke="#f1f5f9"/>
          <path id="Vector_3" stroke="#f1f5f9" d="M1.5 5h11v7c0 0.2652 -0.1054 0.5196 -0.2929 0.7071S11.7652 13 11.5 13h-9c-0.26522 0 -0.51957 -0.1054 -0.70711 -0.2929C1.60536 12.5196 1.5 12.2652 1.5 12V5v0Z" vector-effect="non-scaling-stroke" fill="none"/>
          <path id="Vector_4" stroke="#f1f5f9" d="M13.5 4V2c0 -0.55228 -0.4477 -1 -1 -1l-11 0c-0.552285 0 -1 0.44772 -1 1v2c0 0.55228 0.447715 1 1 1l11 0c0.5523 0 1 -0.44772 1 -1Z" vector-effect="non-scaling-stroke" fill="none"/>
          <path id="Vector_5" stroke="#f1f5f9" d="M5.5 8h3" vector-effect="non-scaling-stroke" fill="none"/>
        </g>
      </g>
      <g transform="translate(332, 0)">
        <path id="ITEM_5_TEXT_BG" d="M -24 -46 L 374 -46 L 414 -8 L 414 140 L 30 140 L -46 82 L -46 16 Z" fill="var(--panel)" fill-opacity="0.96" stroke="var(--primary-text)" stroke-opacity="0.12" stroke-width="1.5" filter="url(#svgd68209ef-shadow)"/>
        <rect x="386" y="-28" width="10" height="104" rx="5" fill="var(--accent-5)" opacity="0.7"/>
        <line x1="22" y1="10" x2="348" y2="10" stroke="var(--accent-5)" stroke-width="3" opacity="0.3"/>
        <text id="ITEM_5_HEAD" data-bg-id="ITEM_5_TEXT_BG" font-weight="700" font-size="26" fill="var(--accent-2)" x="22.0" y="-28.0" fill-opacity="1.0" style="font-size: 31px; font-family: 'Segoe UI Variable Display', 'Aptos Display', 'Inter', 'Segoe UI', Helvetica, Arial, sans-serif; font-weight: 700; font-kerning: normal; font-feature-settings: &quot;kern&quot; 1, &quot;liga&quot; 1; letter-spacing:-0.4px;" data-final-font-size="31">
          <tspan x="22.0" dy="25.52px">Final Transfers</tspan>
        </text>
        <rect id="ITEM_5_HEAD_FRAME" x="22" y="-28" width="334" height="34" fill="none"/>
        <text id="ITEM_5_BODY" data-bg-id="ITEM_5_TEXT_BG" font-size="18.5" fill="var(--primary-text)" x="22.0" y="20.0" style="font-size: 23px; font-family: 'Segoe UI Variable Text', 'Aptos', 'Inter', 'Segoe UI', Helvetica, Arial, sans-serif; font-weight: 400; font-kerning: normal; font-feature-settings: &quot;kern&quot; 1, &quot;liga&quot; 1;" data-final-font-size="23">
          <tspan x="22.0" dy="22.22px">Correspondence and FOI records</tspan>
          <tspan x="22.0" dy="26.45px">enter National Archives</tspan>
        </text>
        <rect id="ITEM_5_BODY_FRAME" x="22" y="20" width="352" height="72" fill="none"/>
      </g>
    </g>
    <line id="PHX_SEQUENCE_MIDROUTE_ARROW_1" x1="960.0" y1="552.0" x2="960.0" y2="608.0" stroke="var(--muted-text)" opacity="0.92" stroke-width="5" stroke-linecap="round" marker-end="url(#svgd68209ef-PHX_SEQUENCE_DIRECTION_ARROW)" data-direction-cue="forward"/>
  </g>
  <text id="SOURCE_NOTE" x="134.0" y="1058.0" fill="var(--muted-text)" opacity="1" style="font-family: var(--font-family); font-size: 20px;">Source: UK Parliament House of Commons</text>
</svg>
