<?xml version='1.0' encoding='utf-8'?>
<svg xmlns="http://www.w3.org/2000/svg" width="1920" height="1080" viewBox="0 0 1920 1080" data-theme="dark" data-semantic-intent="uncertain_compare" data-relation-type="hypothesis_comparison" data-site-visual-identity="signal-cobalt">
  <style>
        @font-face {
            font-family: 'Inter';
            src: url('assets/fonts/Inter-Regular.ttf') format('truetype');
            font-weight: 400;
            font-style: normal;
            font-display: swap;
        }
        @font-face {
            font-family: 'Inter';
            src: url('assets/fonts/Inter-Bold.ttf') format('truetype');
            font-weight: 600;
            font-style: normal;
            font-display: swap;
        }
        @font-face {
            font-family: 'Inter';
            src: url('assets/fonts/Inter-Bold.ttf') format('truetype');
            font-weight: 800;
            font-style: normal;
            font-display: swap;
        }
        
:root {
    --background: #0f172a;
    --panel: #1e293b;
    --primary-text: #f1f5f9;
    --muted-text: #94a3b8;
    --inverse-text: #0f172a;
    --border: #334155;
    --shadow-color: #000000;
    --icon-pad-bg: #1e293b;
    --art-glow: #7dd3fc;
    --art-glow-opacity: 0.18;
    --art-sheen: #ffffff;
    --art-sheen-opacity: 0.18;
    --art-shadow: #000000;
    --art-shadow-opacity: 0.28;
    --art-muted-line: #64748b;
    --art-panel-tint: #1e293b;
    --semantic-risk: #f87171;
    --semantic-warning: #fb923c;
    --semantic-uncertain: #fbbf24;
    --semantic-evidence: #60a5fa;
    --semantic-claim: #c084fc;
    --semantic-positive: #4ade80;
    --semantic-outcome: #22d3ee;
    --font-family: 'Inter', 'Segoe UI', 'Kalam', Roboto, Helvetica, Arial, sans-serif;
    --radius-xl: 16px;
    --font-family-headline: 'Segoe UI Variable Display', 'Aptos Display', 'Inter', 'Segoe UI', Helvetica, Arial, sans-serif;
    --font-family-body: 'Segoe UI Variable Text', 'Aptos', 'Inter', 'Segoe UI', Helvetica, Arial, sans-serif;
    --font-heading: var(--font-family-headline);
    --font-body: var(--font-family-body);
    --font-size-h1: 64px;
    --font-size-h2: 42px;
    --font-size-h3: 29px;
    --font-size-body: 21px;
    --font-size-caption: 17px;
    --secondary-text: var(--muted-text);
    --panel-border: var(--border);
    --font-weight-normal: 400;
    --font-weight-medium: 500;
    --font-weight-semibold: 600;
    --font-weight-bold: 700;
    --spacing-gutter-pct: 0.07;
    --spacing-top-pct: 0.15;
    --spacing-bottom-pct: 0.07;
    --spacing-title-y-pct: 0.055;
    --accent-1: #93c5fd;
    --accent-2: #60a5fa;
    --accent-3: #818cf8;
    --accent-4: #a78bfa;
    --accent-5: #38bdf8;
    --accent-6: #fb923c;
}
:root[data-theme="dark"] {
    --background: #0f172a;
    --panel: #1e293b;
    --primary-text: #f1f5f9;
    --muted-text: #94a3b8;
    --inverse-text: #0f172a;
    --border: #334155;
    --shadow-color: #000000;
    --icon-pad-bg: #1e293b;
    --art-glow: #7dd3fc;
    --art-glow-opacity: 0.18;
    --art-sheen: #ffffff;
    --art-sheen-opacity: 0.18;
    --art-shadow: #000000;
    --art-shadow-opacity: 0.28;
    --art-muted-line: #64748b;
    --art-panel-tint: #1e293b;
    --semantic-risk: #f87171;
    --semantic-warning: #fb923c;
    --semantic-uncertain: #fbbf24;
    --semantic-evidence: #60a5fa;
    --semantic-claim: #c084fc;
    --semantic-positive: #4ade80;
    --semantic-outcome: #22d3ee;
    --accent-1: #93c5fd;
    --accent-2: #60a5fa;
    --accent-3: #818cf8;
    --accent-4: #a78bfa;
    --accent-5: #38bdf8;
    --accent-6: #fb923c;
}
:root[data-theme="light"] {
    --background: #f8fafc;
    --panel: #ffffff;
    --primary-text: #0f172a;
    --muted-text: #64748b;
    --inverse-text: #ffffff;
    --border: #e2e8f0;
    --shadow-color: #000000;
    --icon-pad-bg: #1e293b;
    --art-glow: #0891b2;
    --art-glow-opacity: 0.10;
    --art-sheen: #ffffff;
    --art-sheen-opacity: 0.34;
    --art-shadow: #0f172a;
    --art-shadow-opacity: 0.14;
    --art-muted-line: #94a3b8;
    --art-panel-tint: #f1f5f9;
    --semantic-risk: #b91c1c;
    --semantic-warning: #c2410c;
    --semantic-uncertain: #a16207;
    --semantic-evidence: #1d4ed8;
    --semantic-claim: #6d28d9;
    --semantic-positive: #15803d;
    --semantic-outcome: #0e7490;
    --accent-1: #1d4ed8;
    --accent-2: #2563eb;
    --accent-3: #4f46e5;
    --accent-4: #6d28d9;
    --accent-5: #0369a1;
    --accent-6: #c2410c;
}</style>
  <rect x="0" y="0" width="1.92E+3" height="1.08E+3" fill="#0f172a" stroke="none" id="programmatic_background"/>
  <line id="HEADER_DECOR" x1="960.0" x2="1080.0" y1="105.0" y2="105.0" stroke="var(--accent-1)" stroke-width="6" stroke-linecap="round"/>
  <defs>
    <pattern id="svg7e7a7975-napkin-hatch" patternUnits="userSpaceOnUse" width="12" height="12">
      <path d="M -3 12 L 12 -3 M 0 15 L 15 0" fill="none" stroke="var(--primary-text)" stroke-width="1" stroke-opacity="0.05"/>
    </pattern>
    <filter id="svg7e7a7975-shadow" x="-30%" y="-30%" width="160%" height="160%">
      <feDropShadow dx="0" dy="3" stdDeviation="6" flood-color="#000000" flood-opacity="0.10"/>
      <feDropShadow dx="0" dy="8" stdDeviation="12" flood-color="#000000" flood-opacity="0.16"/>
    </filter>
    <radialGradient id="svg7e7a7975-universal-edge-vignette" cx="50%" cy="50%" r="72%">
      <stop offset="0%" stop-color="var(--background)" stop-opacity="0"/>
      <stop offset="72%" stop-color="var(--background)" stop-opacity="0.12"/>
      <stop offset="100%" stop-color="var(--primary-text)" stop-opacity="0.08"/>
    </radialGradient>
    <linearGradient id="svg7e7a7975-universal-surface-sheen" x1="0%" y1="0%" x2="100%" y2="100%">
      <stop offset="0%" stop-color="var(--art-sheen)" stop-opacity="var(--art-sheen-opacity)"/>
      <stop offset="46%" stop-color="var(--art-sheen)" stop-opacity="0.035"/>
      <stop offset="100%" stop-color="var(--art-panel-tint)" stop-opacity="0.14"/>
    </linearGradient>
    <radialGradient id="svg7e7a7975-universal-icon-aura" cx="50%" cy="42%" r="64%">
      <stop offset="0%" stop-color="var(--art-glow)" stop-opacity="var(--art-glow-opacity)"/>
      <stop offset="100%" stop-color="var(--background)" stop-opacity="0"/>
    </radialGradient>
    <linearGradient id="svg7e7a7975-card-panel-sheen" x1="0%" y1="0%" x2="100%" y2="100%">
      <stop offset="0%" stop-color="var(--inverse-text)" stop-opacity="0.20"/>
      <stop offset="48%" stop-color="var(--inverse-text)" stop-opacity="0.04"/>
      <stop offset="100%" stop-color="var(--background)" stop-opacity="0.16"/>
    </linearGradient>
    <radialGradient id="svg7e7a7975-card-icon-glow" cx="50%" cy="35%" r="62%">
      <stop offset="0%" stop-color="var(--inverse-text)" stop-opacity="0.22"/>
      <stop offset="100%" stop-color="var(--background)" stop-opacity="0"/>
    </radialGradient>
    <filter id="svg7e7a7975-text-glow" x="-20%" y="-20%" width="140%" height="140%">
      <feDropShadow dx="0" dy="0" stdDeviation="2" flood-color="#000000" flood-opacity="0.4"/>
    </filter>
    <marker id="svg7e7a7975-arrowhead" markerWidth="10" markerHeight="7" refX="9" refY="3.5" orient="auto" markerUnits="strokeWidth">
      <polygon points="0 0, 10 3.5, 0 7" fill="var(--muted-text)" opacity="0.6"/>
    </marker>
  </defs>
  <rect width="100%" height="100%" fill="var(--background)" id="CANVAS_BG"/>
  <rect width="100%" height="100%" fill="url(#svg7e7a7975-napkin-hatch)"/>
  <rect id="UNIVERSAL_EDGE_VIGNETTE" width="100%" height="100%" fill="url(#svg7e7a7975-universal-edge-vignette)" opacity="0.62"/>
  <text id="TITLE" x="960.0" y="59" font-size="54" font-weight="800" fill="#f1f5f9" text-anchor="middle" style="font-size: 69px; font-family: 'Segoe UI Variable Display', 'Aptos Display', 'Inter', 'Segoe UI', Helvetica, Arial, sans-serif; font-weight: 800; font-kerning: normal; font-feature-settings: &quot;kern&quot; 1, &quot;liga&quot; 1; letter-spacing:-1.2px;" data-final-font-size="69">
    <tspan x="960.0" dy="70.47px">Evidence Weighting in Rendlesham</tspan>
  </text>
  <rect id="TITLE_FRAME" x="134" y="35" width="1652" height="78" fill="none"/>
  <rect x="120" y="150" width="1680" height="830" rx="40" fill="var(--panel)" fill-opacity="0.24" stroke="var(--muted-text)" stroke-width="2" opacity="0.94"/>
  <g id="DIAGRAM_MAIN">
    <g filter="url(#svg7e7a7975-shadow)">
      <rect id="ITEM_1_BG" x="170" y="180" width="480" height="388" rx="28" fill="var(--panel)" fill-opacity="0.98" stroke="var(--accent-1)" stroke-width="3"/>
      <rect x="170" y="180" width="480" height="18" rx="9" fill="var(--accent-1)" fill-opacity="0.55"/>
      <rect x="295" y="216" width="230" height="30" rx="15" fill="var(--accent-1)" fill-opacity="0.10"/>
      <circle id="ITEM_1_PAD" cx="410" cy="262" r="54" fill="var(--icon-pad-bg)" opacity="1" fill-opacity="0.9" stroke-width="2" stroke="var(--semantic-uncertain)" stroke-opacity="0.72" data-badge-layer="pad"/>
      <circle id="ITEM_1_PAD_INNER" cx="410" cy="262" r="42.12" fill="var(--semantic-uncertain)" fill-opacity="0.12" stroke="none" data-badge-layer="tint"/>
      <circle cx="410" cy="262" r="42" fill="none" stroke="var(--accent-1)" stroke-width="3" stroke-dasharray="6 4" display="none" data-suppressed-decoration="redundant-badge-ring"/>
      <g id="ITEM_1_ICON" transform="translate(373, 225)" data-icon-size="74" stroke-linecap="round" stroke-linejoin="round" data-badge-treatment="clean">
        <g transform="translate(-9.592920353982306,-11.829380530973456) scale(2.9819469026548675)">
          <path d="M3.27393 28.0227C3.46919 27.8274 3.78578 27.8274 3.98104 28.0227C4.1763 28.2179 4.1763 28.5345 3.98104 28.7298L2.56683 30.144C2.37156 30.3392 2.05498 30.3392 1.85972 30.144C1.66446 29.9487 1.66446 29.6321 1.85972 29.4369L3.27393 28.0227Z" fill="#402A32"/>
          <path d="M27.9001 8.10118C28.1994 7.95818 28.48 7.7627 28.7279 7.51475C29.8995 6.34318 29.8995 4.44369 28.7279 3.27211C27.5563 2.10054 25.6569 2.10054 24.4853 3.27211C24.2373 3.52006 24.0418 3.80062 23.8989 4.09998L23.7782 3.97928L13.5691 12.1405C13.5691 13.3175 12.5867 14.2613 11.4102 14.2259L11.3453 14.2909C11.1201 14.516 10.917 14.7621 10.7387 15.0258L3.62561 25.546L4.57008 27.5017L6.45404 28.3745L16.9743 21.2614C17.238 21.083 17.4841 20.8799 17.7092 20.6548L17.7785 20.5855L17.7879 20.2879C17.8223 19.1986 18.7607 18.3595 19.8471 18.4465L28.0208 8.22192L27.9001 8.10118Z" fill="#0074BA"/>
          <path d="M29.435 8.2218L24.4853 3.27209L23.7782 3.9792L28.7279 8.92892L23.4246 14.2322C23.2294 14.4275 23.2294 14.7441 23.4246 14.9393C23.6199 15.1346 23.9365 15.1346 24.1317 14.9393L29.435 9.63602C29.8256 9.24549 29.8256 8.61233 29.435 8.2218Z" fill="#F9C23C"/>
          <path d="M11.4038 14.2323L13.2026 12.4335L13.5611 12.1469L19.8531 18.439L19.5665 18.7975L17.7677 20.5963L11.4038 14.2323Z" fill="#F9C23C"/>
          <path d="M6.45225 28.3762L3.62382 25.5477L3.27027 25.9013C2.48922 26.6823 2.48922 27.9487 3.27027 28.7297C4.05131 29.5108 5.31764 29.5108 6.09869 28.7297L6.45225 28.3762Z" fill="#F9C23C"/>
        </g>
      </g>
      <text id="ITEM_1_HEAD" x="410.0" y="328.0" font-weight="800" font-size="28" fill="var(--semantic-uncertain)" text-anchor="middle" data-bg-id="ITEM_1_BG" fill-opacity="1.0" stroke="none" style="font-size: 31px; font-family: 'Segoe UI Variable Display', 'Aptos Display', 'Inter', 'Segoe UI', Helvetica, Arial, sans-serif; font-weight: 700; font-kerning: normal; font-feature-settings: &quot;kern&quot; 1, &quot;liga&quot; 1; letter-spacing:-0.4px;" data-final-font-size="31">
        <tspan x="410.0" dy="43.24px">Early Statements</tspan>
      </text>
      <rect id="ITEM_1_HEAD_FRAME" x="230" y="328" width="360" height="56" fill="none"/>
      <text id="ITEM_1_BODY" x="410.0" y="378.0" font-size="18" fill="var(--primary-text)" text-anchor="middle" data-bg-id="ITEM_1_BG" style="font-size: 23px; font-family: 'Segoe UI Variable Text', 'Aptos', 'Inter', 'Segoe UI', Helvetica, Arial, sans-serif; font-weight: 400; font-kerning: normal; font-feature-settings: &quot;kern&quot; 1, &quot;liga&quot; 1;" data-final-font-size="23">
        <tspan x="410.0" dy="46.51px">High evidential weight due to proximity</tspan>
        <tspan x="410.0" dy="26.45px">to event</tspan>
      </text>
      <rect id="ITEM_1_BODY_FRAME" x="195" y="378" width="430" height="156" fill="none"/>
    </g>
    <g filter="url(#svg7e7a7975-shadow)">
      <rect id="ITEM_2_BG" x="720" y="180" width="480" height="388" rx="28" fill="var(--panel)" fill-opacity="0.98" stroke="var(--accent-2)" stroke-width="3"/>
      <rect x="720" y="180" width="480" height="18" rx="9" fill="var(--accent-2)" fill-opacity="0.55"/>
      <rect x="845" y="216" width="230" height="30" rx="15" fill="var(--accent-2)" fill-opacity="0.10"/>
      <circle id="ITEM_2_PAD" cx="960" cy="262" r="54" fill="var(--icon-pad-bg)" opacity="1" fill-opacity="0.9" stroke-width="2" stroke="var(--semantic-evidence)" stroke-opacity="0.72" data-badge-layer="pad"/>
      <circle id="ITEM_2_PAD_INNER" cx="960" cy="262" r="42.12" fill="var(--semantic-evidence)" fill-opacity="0.12" stroke="none" data-badge-layer="tint"/>
      <circle cx="960" cy="262" r="42" fill="none" stroke="var(--accent-2)" stroke-width="3" stroke-dasharray="6 4" display="none" data-suppressed-decoration="redundant-badge-ring"/>
      <g id="ITEM_2_ICON" transform="translate(923, 225)" data-icon-size="74" stroke-linecap="round" stroke-linejoin="round" data-badge-treatment="clean">
        <g transform="translate(-10.711150442477884,-11.083893805309739) scale(2.9819469026548675)">
          <path d="M10.3535 3.06063C10.1582 2.86537 10.1582 2.54879 10.3535 2.35352C10.5487 2.15826 10.8653 2.15826 11.0606 2.35352L14.9497 6.24261L14.2426 6.94972L10.3535 3.06063Z" fill="#636363"/>
          <path d="M18.889 2.35348C19.0842 2.15822 19.4008 2.15822 19.5961 2.35348C19.7914 2.54874 19.7914 2.86532 19.5961 3.06058L15.707 6.94967L14.9999 6.24257L18.889 2.35348Z" fill="#636363"/>
          <path d="M11.0002 23.5L8.00024 23L6.46544 28.7279C6.31248 29.2987 6.65125 29.8855 7.22209 30.0385C7.73725 30.1765 8.2754 29.9141 8.48393 29.4232L11.0002 23.5Z" fill="#636363"/>
          <path d="M21.0002 23.5L24.0002 23L25.535 28.7279C25.688 29.2987 25.3492 29.8855 24.7784 30.0385C24.2632 30.1765 23.7251 29.9141 23.5165 29.4232L21.0002 23.5Z" fill="#636363"/>
          <path d="M3 9C3 7.34315 4.34315 6 6 6H26C27.6569 6 29 7.34315 29 9V22C29 23.6569 27.6569 25 26 25H6C4.34315 25 3 23.6569 3 22V9Z" fill="#9B9B9B"/>
          <circle cx="25.75" cy="13.25" r="1.25" fill="#CA0B4A"/>
          <circle cx="25.75" cy="9.25" r="1.25" fill="#636363"/>
          <path d="M6.5 11.5C6.5 10.3954 7.39543 9.5 8.5 9.5H20.5C21.6046 9.5 22.5 10.3954 22.5 11.5V19.5C22.5 20.6046 21.6046 21.5 20.5 21.5H8.5C7.39543 21.5 6.5 20.6046 6.5 19.5V11.5Z" fill="#83CBFF"/>
          <path d="M21 10C21.5523 10 22 10.4477 22 11V20C22 20.5523 21.5523 21 21 21H8C7.44772 21 7 20.5523 7 20V11C7 10.4477 7.44772 10 8 10H21ZM8 9C6.89543 9 6 9.89543 6 11V20C6 21.1046 6.89543 22 8 22H21C22.1046 22 23 21.1046 23 20V11C23 9.89543 22.1046 9 21 9H8Z" fill="#321B41"/>
        </g>
      </g>
      <text id="ITEM_2_HEAD" x="960.0" y="328.0" font-weight="800" font-size="28" fill="var(--semantic-evidence)" text-anchor="middle" data-bg-id="ITEM_2_BG" fill-opacity="1.0" stroke="none" style="font-size: 31px; font-family: 'Segoe UI Variable Display', 'Aptos Display', 'Inter', 'Segoe UI', Helvetica, Arial, sans-serif; font-weight: 700; font-kerning: normal; font-feature-settings: &quot;kern&quot; 1, &quot;liga&quot; 1; letter-spacing:-0.4px;" data-final-font-size="31">
        <tspan x="960.0" dy="43.24px">Retrospective Narratives</tspan>
      </text>
      <rect id="ITEM_2_HEAD_FRAME" x="780" y="328" width="360" height="56" fill="none"/>
      <text id="ITEM_2_BODY" x="960.0" y="378.0" font-size="18" fill="var(--primary-text)" text-anchor="middle" data-bg-id="ITEM_2_BG" style="font-size: 23px; font-family: 'Segoe UI Variable Text', 'Aptos', 'Inter', 'Segoe UI', Helvetica, Arial, sans-serif; font-weight: 400; font-kerning: normal; font-feature-settings: &quot;kern&quot; 1, &quot;liga&quot; 1;" data-final-font-size="23">
        <tspan x="960.0" dy="46.51px">Subject to reconstruction through media</tspan>
        <tspan x="960.0" dy="26.45px">and reflection</tspan>
      </text>
      <rect id="ITEM_2_BODY_FRAME" x="745" y="378" width="430" height="156" fill="none"/>
    </g>
    <g filter="url(#svg7e7a7975-shadow)">
      <rect id="ITEM_3_BG" x="1270" y="180" width="480" height="388" rx="28" fill="var(--panel)" fill-opacity="0.98" stroke="var(--accent-3)" stroke-width="3"/>
      <rect x="1270" y="180" width="480" height="18" rx="9" fill="var(--accent-3)" fill-opacity="0.55"/>
      <rect x="1395" y="216" width="230" height="30" rx="15" fill="var(--accent-3)" fill-opacity="0.10"/>
      <circle id="ITEM_3_PAD" cx="1510" cy="262" r="54" fill="var(--icon-pad-bg)" opacity="1" fill-opacity="0.9" stroke-width="2" stroke="var(--semantic-uncertain)" stroke-opacity="0.72" data-badge-layer="pad"/>
      <circle id="ITEM_3_PAD_INNER" cx="1510" cy="262" r="42.12" fill="var(--semantic-uncertain)" fill-opacity="0.12" stroke="none" data-badge-layer="tint"/>
      <circle cx="1510" cy="262" r="42" fill="none" stroke="var(--accent-3)" stroke-width="3" stroke-dasharray="6 4" display="none" data-suppressed-decoration="redundant-badge-ring"/>
      <g id="ITEM_3_ICON" transform="translate(1473, 225)" data-icon-size="74" stroke-linecap="round" stroke-linejoin="round" data-badge-treatment="clean">
        <g transform="translate(-5.1200000000000045,-5.1200000000000045) scale(6.017142857142858)" vector-effect="non-scaling-stroke" stroke-width="2.60" stroke-linecap="round" stroke-linejoin="round" stroke-opacity="1.0">
          <path id="Vector" fill="none" d="M6 11.5a5.5 5.5 0 1 0 0 -11 5.5 5.5 0 0 0 0 11Z" vector-effect="non-scaling-stroke" stroke="#f1f5f9"/>
          <path id="Vector_2" stroke="#f1f5f9" d="M6 11.5a5.5 5.5 0 1 0 0 -11 5.5 5.5 0 0 0 0 11Z" vector-effect="non-scaling-stroke" fill="none"/>
          <path id="Vector_3" stroke="#f1f5f9" d="M13.5 13.5 10 10" vector-effect="non-scaling-stroke" fill="none"/>
        </g>
      </g>
      <text id="ITEM_3_HEAD" x="1510.0" y="328.0" font-weight="800" font-size="28" fill="var(--semantic-uncertain)" text-anchor="middle" data-bg-id="ITEM_3_BG" fill-opacity="1.0" stroke="none" style="font-size: 31px; font-family: 'Segoe UI Variable Display', 'Aptos Display', 'Inter', 'Segoe UI', Helvetica, Arial, sans-serif; font-weight: 700; font-kerning: normal; font-feature-settings: &quot;kern&quot; 1, &quot;liga&quot; 1; letter-spacing:-0.4px;" data-final-font-size="31">
        <tspan x="1510.0" dy="43.24px">Omitted Details</tspan>
      </text>
      <rect id="ITEM_3_HEAD_FRAME" x="1330" y="328" width="360" height="56" fill="none"/>
      <text id="ITEM_3_BODY" x="1510.0" y="378.0" font-size="18" fill="var(--primary-text)" text-anchor="middle" data-bg-id="ITEM_3_BG" style="font-size: 23px; font-family: 'Segoe UI Variable Text', 'Aptos', 'Inter', 'Segoe UI', Helvetica, Arial, sans-serif; font-weight: 400; font-kerning: normal; font-feature-settings: &quot;kern&quot; 1, &quot;liga&quot; 1;" data-final-font-size="23">
        <tspan x="1510.0" dy="46.51px">Missing physical contact and telepathic</tspan>
        <tspan x="1510.0" dy="26.45px">claims create gaps</tspan>
      </text>
      <rect id="ITEM_3_BODY_FRAME" x="1295" y="378" width="430" height="156" fill="none"/>
    </g>
    <g filter="url(#svg7e7a7975-shadow)">
      <rect id="ITEM_4_BG" x="260" y="580" width="660" height="370" rx="30" fill="var(--panel)" fill-opacity="0.98" stroke="var(--accent-4)" stroke-width="3"/>
      <rect x="260" y="590" width="660" height="18" rx="9" fill="var(--accent-4)" fill-opacity="0.55"/>
      <rect x="430" y="628" width="320" height="32" rx="16" fill="var(--accent-4)" fill-opacity="0.10"/>
      <circle id="ITEM_4_PAD" cx="590" cy="684" r="54" fill="var(--icon-pad-bg)" opacity="1" fill-opacity="0.9" stroke-width="2" stroke="var(--semantic-evidence)" stroke-opacity="0.72" data-badge-layer="pad"/>
      <circle id="ITEM_4_PAD_INNER" cx="590" cy="684" r="42.12" fill="var(--semantic-evidence)" fill-opacity="0.12" stroke="none" data-badge-layer="tint"/>
      <circle cx="590" cy="684" r="42" fill="none" stroke="var(--accent-4)" stroke-width="3" stroke-dasharray="6 4" display="none" data-suppressed-decoration="redundant-badge-ring"/>
      <g id="ITEM_4_ICON" transform="translate(551, 645)" data-icon-size="78" stroke-linecap="round" stroke-linejoin="round" data-badge-treatment="clean">
        <g transform="translate(-9.137142857142862,-12.145714285714291) scale(3.008571428571429)">
          <path d="M15.385 7.39062L12.9075 4.915C12.3219 4.32875 11.5275 4 10.6987 4H4.125C2.95125 4 2 4.95125 2 6.125V13.5H12.985H30V10.1375C30 8.96375 29.0488 8.0125 27.875 8.0125H16.8875C16.3237 8.0125 15.7838 7.78875 15.385 7.39062Z" fill="#FFB02E"/>
          <path d="M27.875 30H4.125C2.95125 30 2 29.0545 2 27.8878V13.1122C2 11.9455 2.95125 11 4.125 11H27.875C29.0488 11 30 11.9455 30 13.1122V27.8878C30 29.0545 29.0488 30 27.875 30Z" fill="#FCD53F"/>
        </g>
      </g>
      <text id="ITEM_4_HEAD" x="590.0" y="754.0" font-weight="800" font-size="30" fill="var(--semantic-evidence)" text-anchor="middle" data-bg-id="ITEM_4_BG" fill-opacity="1.0" stroke="none" style="font-size: 31px; font-family: 'Segoe UI Variable Display', 'Aptos Display', 'Inter', 'Segoe UI', Helvetica, Arial, sans-serif; font-weight: 700; font-kerning: normal; font-feature-settings: &quot;kern&quot; 1, &quot;liga&quot; 1; letter-spacing:-0.4px;" data-final-font-size="31">
        <tspan x="590.0" dy="44.48px">Unpublished Notes</tspan>
      </text>
      <rect id="ITEM_4_HEAD_FRAME" x="380" y="754" width="420" height="58" fill="none"/>
      <text id="ITEM_4_BODY" x="595.0" y="798.0" font-size="18" fill="var(--primary-text)" text-anchor="middle" data-bg-id="ITEM_4_BG" style="font-size: 23px; font-family: 'Segoe UI Variable Text', 'Aptos', 'Inter', 'Segoe UI', Helvetica, Arial, sans-serif; font-weight: 400; font-kerning: normal; font-feature-settings: &quot;kern&quot; 1, &quot;liga&quot; 1;" data-final-font-size="23">
        <tspan x="595.0" dy="44.52px">Claimed preservation of memory</tspan>
        <tspan x="595.0" dy="26.45px">before public retelling</tspan>
      </text>
      <rect id="ITEM_4_BODY_FRAME" x="360" y="798" width="470" height="148" fill="none"/>
    </g>
    <g filter="url(#svg7e7a7975-shadow)">
      <rect id="ITEM_5_BG" x="1000" y="580" width="660" height="370" rx="30" fill="var(--panel)" fill-opacity="0.98" stroke="var(--accent-5)" stroke-width="3"/>
      <rect x="1000" y="590" width="660" height="18" rx="9" fill="var(--accent-5)" fill-opacity="0.55"/>
      <rect x="1170" y="628" width="320" height="32" rx="16" fill="var(--accent-5)" fill-opacity="0.10"/>
      <circle id="ITEM_5_PAD" cx="1330" cy="684" r="54" fill="var(--icon-pad-bg)" opacity="1" fill-opacity="0.9" stroke-width="2" stroke="var(--semantic-uncertain)" stroke-opacity="0.72" data-badge-layer="pad"/>
      <circle id="ITEM_5_PAD_INNER" cx="1330" cy="684" r="42.12" fill="var(--semantic-uncertain)" fill-opacity="0.12" stroke="none" data-badge-layer="tint"/>
      <circle cx="1330" cy="684" r="42" fill="none" stroke="var(--accent-5)" stroke-width="3" stroke-dasharray="6 4" display="none" data-suppressed-decoration="redundant-badge-ring"/>
      <g id="ITEM_5_ICON" transform="translate(1291, 645)" data-icon-size="78" stroke-linecap="round" stroke-linejoin="round" data-badge-treatment="clean">
        <g transform="translate(-8.292631578947374,-8.662105263157901) scale(0.18473684210526317)" vector-effect="non-scaling-stroke" fill="#f1f5f9" fill-opacity="1.0" stroke="none">
          <path fill="#f1f5f9" d="M228.844 32.22v114.218h17.687V32.218h-17.686zm-108.25.624c-15.507 0-28.094 12.586-28.094 28.093S105.087 89 120.594 89c12.655 0 23.34-8.372 26.844-19.875h44.937v77.313h17.688v-95H147.03c-3.888-10.837-14.262-18.593-26.436-18.593zm193.25 0c-15.507 0-28.063 12.586-28.063 28.093c0 12.124 7.677 22.45 18.44 26.376v59.124h17.655V87.844c11.596-3.452 20.063-14.193 20.063-26.906c0-15.508-12.587-28.094-28.094-28.094zM266.124 92.5v53.938h17.657V92.5h-17.655zm188.532 4.03c-15.507 0-28.094 12.588-28.094 28.095c0 13.083 8.948 24.074 21.063 27.188v27.468h-92.938v17.657h110.624v-46.342c10.223-4.192 17.407-14.233 17.407-25.97c0-15.507-12.557-28.094-28.064-28.094zM30.187 123.657v17.688H96.75v55.594h62.814V179.28h-45.126v-55.624zm147.032 40.47v159.718h159.81v-159.72H177.22zm17.56 15.655h17.657v78.595l32.407 32.406h75.28v17.658H237.5l-2.594-2.594l-10.75-10.75c-1.033 7.385-7.36 13.062-15.03 13.062c-8.392 0-15.19-6.796-15.19-15.187c0-7.682 5.696-13.98 13.095-15l-9.655-9.658l-2.594-2.593V179.78zm54.94.157h17.686v55.313h52.53l.002 17.688H249.72v-73zM53.124 217.375v89.969c-11.49 3.512-19.844 14.198-19.844 26.844c0 15.505 12.557 28.093 28.064 28.093s28.093-12.587 28.093-28.092c0-12.195-7.79-22.564-18.656-26.438v-72.72h88.782v-17.655H53.124zm301.563 0v17.656h53.968v-17.655h-53.97zm99.968 21.97c-10.898 0-20.342 6.21-25 15.28h-74.97l.002 17.688H427c2.325 13.168 13.824 23.187 27.656 23.187c15.507 0 28.063-12.588 28.063-28.094s-12.557-28.062-28.064-28.062zm-349.062 15.28v17.688h53.97v-17.688zm17.156 36.47v84.217c-11.498 3.513-19.875 14.2-19.875 26.844c0 15.506 12.587 28.094 28.094 28.094c15.506 0 28.06-12.588 28.06-28.094c0-12.194-7.766-22.564-18.624-26.437v-66.94h19.156v-17.686h-36.81zm231.938 0v17.686h45.156v95.283c-11.323 3.624-19.53 14.26-19.53 26.78c-.002 15.506 12.585 28.063 28.092 28.063s28.063-12.557 28.063-28.062c0-12.32-7.935-22.778-18.97-26.563V291.095h-62.814zM192.375 341.53v54.033h17.688V341.53zm36.47 0v86.564c-11.013 3.794-18.94 14.233-18.94 26.53c0 15.506 12.588 28.095 28.095 28.095s28.063-12.59 28.063-28.095c0-12.53-8.203-23.14-19.532-26.75V341.53zm37.28 0v54.033h17.688l-.032-54.032h-17.655zm38.094 0v140.064h17.655V341.53H304.22z" vector-effect="non-scaling-stroke" stroke="none"/>
        </g>
      </g>
      <text id="ITEM_5_HEAD" x="1330.0" y="754.0" font-weight="800" font-size="30" fill="var(--semantic-uncertain)" text-anchor="middle" data-bg-id="ITEM_5_BG" fill-opacity="1.0" stroke="none" style="font-size: 31px; font-family: 'Segoe UI Variable Display', 'Aptos Display', 'Inter', 'Segoe UI', Helvetica, Arial, sans-serif; font-weight: 700; font-kerning: normal; font-feature-settings: &quot;kern&quot; 1, &quot;liga&quot; 1; letter-spacing:-0.4px;" data-final-font-size="31">
        <tspan x="1330.0" dy="44.48px">Binary Transmission</tspan>
      </text>
      <rect id="ITEM_5_HEAD_FRAME" x="1120" y="754" width="420" height="58" fill="none"/>
      <text id="ITEM_5_BODY" x="1335.0" y="798.0" font-size="18" fill="var(--primary-text)" text-anchor="middle" data-bg-id="ITEM_5_BG" style="font-size: 23px; font-family: 'Segoe UI Variable Text', 'Aptos', 'Inter', 'Segoe UI', Helvetica, Arial, sans-serif; font-weight: 400; font-kerning: normal; font-feature-settings: &quot;kern&quot; 1, &quot;liga&quot; 1;" data-final-font-size="23">
        <tspan x="1335.0" dy="44.52px">New category of phenomenon appearing only</tspan>
        <tspan x="1335.0" dy="26.45px">in later years</tspan>
      </text>
      <rect id="ITEM_5_BODY_FRAME" x="1100" y="798" width="470" height="148" fill="none"/>
    </g>
  </g>
  <text id="SOURCE_NOTE" x="134.0" y="1058.0" fill="var(--muted-text)" opacity="1" style="font-family: var(--font-family); font-size: 20px;">Source: Ian Ridpath Rendlesham Forest UFO</text>
  <text id="EDITORIAL_NOTE" x="1786.0" y="1058.0" fill="var(--semantic-uncertain)" opacity="1" style="font-family: var(--font-family); font-size: 20px;" text-anchor="end">Interpretations remain disputed; wording reflects source uncertainty.</text>
</svg>
