<?xml version='1.0' encoding='utf-8'?>
<svg xmlns="http://www.w3.org/2000/svg" width="1920" height="1080" viewBox="0 0 1920 1080" data-theme="light" data-semantic-intent="sequence" data-relation-type="sequence" data-site-visual-identity="signal-cobalt">
  <style>
        @font-face {
            font-family: 'Inter';
            src: url('assets/fonts/Inter-Regular.ttf') format('truetype');
            font-weight: 400;
            font-style: normal;
            font-display: swap;
        }
        @font-face {
            font-family: 'Inter';
            src: url('assets/fonts/Inter-Bold.ttf') format('truetype');
            font-weight: 600;
            font-style: normal;
            font-display: swap;
        }
        @font-face {
            font-family: 'Inter';
            src: url('assets/fonts/Inter-Bold.ttf') format('truetype');
            font-weight: 800;
            font-style: normal;
            font-display: swap;
        }
        
:root {
    --background: #f8fafc;
    --panel: #ffffff;
    --primary-text: #0f172a;
    --muted-text: #64748b;
    --inverse-text: #ffffff;
    --border: #e2e8f0;
    --shadow-color: #000000;
    --icon-pad-bg: #1e293b;
    --art-glow: #0891b2;
    --art-glow-opacity: 0.10;
    --art-sheen: #ffffff;
    --art-sheen-opacity: 0.34;
    --art-shadow: #0f172a;
    --art-shadow-opacity: 0.14;
    --art-muted-line: #94a3b8;
    --art-panel-tint: #f1f5f9;
    --semantic-risk: #b91c1c;
    --semantic-warning: #c2410c;
    --semantic-uncertain: #a16207;
    --semantic-evidence: #1d4ed8;
    --semantic-claim: #6d28d9;
    --semantic-positive: #15803d;
    --semantic-outcome: #0e7490;
    --font-family: 'Inter', 'Segoe UI', 'Kalam', Roboto, Helvetica, Arial, sans-serif;
    --radius-xl: 16px;
    --font-family-headline: 'Segoe UI Variable Display', 'Aptos Display', 'Inter', 'Segoe UI', Helvetica, Arial, sans-serif;
    --font-family-body: 'Segoe UI Variable Text', 'Aptos', 'Inter', 'Segoe UI', Helvetica, Arial, sans-serif;
    --font-heading: var(--font-family-headline);
    --font-body: var(--font-family-body);
    --font-size-h1: 64px;
    --font-size-h2: 42px;
    --font-size-h3: 29px;
    --font-size-body: 21px;
    --font-size-caption: 17px;
    --secondary-text: var(--muted-text);
    --panel-border: var(--border);
    --font-weight-normal: 400;
    --font-weight-medium: 500;
    --font-weight-semibold: 600;
    --font-weight-bold: 700;
    --spacing-gutter-pct: 0.07;
    --spacing-top-pct: 0.15;
    --spacing-bottom-pct: 0.07;
    --spacing-title-y-pct: 0.055;
    --accent-1: #1d4ed8;
    --accent-2: #2563eb;
    --accent-3: #4f46e5;
    --accent-4: #6d28d9;
    --accent-5: #0369a1;
    --accent-6: #c2410c;
}
:root[data-theme="dark"] {
    --background: #0f172a;
    --panel: #1e293b;
    --primary-text: #f1f5f9;
    --muted-text: #94a3b8;
    --inverse-text: #0f172a;
    --border: #334155;
    --shadow-color: #000000;
    --icon-pad-bg: #1e293b;
    --art-glow: #7dd3fc;
    --art-glow-opacity: 0.18;
    --art-sheen: #ffffff;
    --art-sheen-opacity: 0.18;
    --art-shadow: #000000;
    --art-shadow-opacity: 0.28;
    --art-muted-line: #64748b;
    --art-panel-tint: #1e293b;
    --semantic-risk: #f87171;
    --semantic-warning: #fb923c;
    --semantic-uncertain: #fbbf24;
    --semantic-evidence: #60a5fa;
    --semantic-claim: #c084fc;
    --semantic-positive: #4ade80;
    --semantic-outcome: #22d3ee;
    --accent-1: #93c5fd;
    --accent-2: #60a5fa;
    --accent-3: #818cf8;
    --accent-4: #a78bfa;
    --accent-5: #38bdf8;
    --accent-6: #fb923c;
}
:root[data-theme="light"] {
    --background: #f8fafc;
    --panel: #ffffff;
    --primary-text: #0f172a;
    --muted-text: #64748b;
    --inverse-text: #ffffff;
    --border: #e2e8f0;
    --shadow-color: #000000;
    --icon-pad-bg: #1e293b;
    --art-glow: #0891b2;
    --art-glow-opacity: 0.10;
    --art-sheen: #ffffff;
    --art-sheen-opacity: 0.34;
    --art-shadow: #0f172a;
    --art-shadow-opacity: 0.14;
    --art-muted-line: #94a3b8;
    --art-panel-tint: #f1f5f9;
    --semantic-risk: #b91c1c;
    --semantic-warning: #c2410c;
    --semantic-uncertain: #a16207;
    --semantic-evidence: #1d4ed8;
    --semantic-claim: #6d28d9;
    --semantic-positive: #15803d;
    --semantic-outcome: #0e7490;
    --accent-1: #1d4ed8;
    --accent-2: #2563eb;
    --accent-3: #4f46e5;
    --accent-4: #6d28d9;
    --accent-5: #0369a1;
    --accent-6: #c2410c;
}</style>
  <rect x="0" y="0" width="1.92E+3" height="1.08E+3" fill="#f8fafc" stroke="none" id="programmatic_background"/>
  <line id="HEADER_DECOR" x1="960.0" x2="1080.0" y1="135.0" y2="135.0" stroke="var(--accent-1)" stroke-width="6" stroke-linecap="round"/>
  <defs>
    <pattern id="svg8cb5dc6a-napkin-hatch" patternUnits="userSpaceOnUse" width="12" height="12">
      <path d="M -3 12 L 12 -3 M 0 15 L 15 0" fill="none" stroke="var(--primary-text)" stroke-width="1" stroke-opacity="0.05"/>
    </pattern>
    <filter id="svg8cb5dc6a-shadow" x="-30%" y="-30%" width="160%" height="160%">
      <feDropShadow dx="0" dy="2" stdDeviation="3" flood-color="#000000" flood-opacity="0.08"/>
      <feDropShadow dx="0" dy="6" stdDeviation="10" flood-color="#000000" flood-opacity="0.12"/>
    </filter>
    <radialGradient id="svg8cb5dc6a-universal-edge-vignette" cx="50%" cy="50%" r="72%">
      <stop offset="0%" stop-color="var(--background)" stop-opacity="0"/>
      <stop offset="72%" stop-color="var(--background)" stop-opacity="0.12"/>
      <stop offset="100%" stop-color="var(--primary-text)" stop-opacity="0.08"/>
    </radialGradient>
    <linearGradient id="svg8cb5dc6a-universal-surface-sheen" x1="0%" y1="0%" x2="100%" y2="100%">
      <stop offset="0%" stop-color="var(--art-sheen)" stop-opacity="var(--art-sheen-opacity)"/>
      <stop offset="46%" stop-color="var(--art-sheen)" stop-opacity="0.035"/>
      <stop offset="100%" stop-color="var(--art-panel-tint)" stop-opacity="0.14"/>
    </linearGradient>
    <radialGradient id="svg8cb5dc6a-universal-icon-aura" cx="50%" cy="42%" r="64%">
      <stop offset="0%" stop-color="var(--art-glow)" stop-opacity="var(--art-glow-opacity)"/>
      <stop offset="100%" stop-color="var(--background)" stop-opacity="0"/>
    </radialGradient>
    <filter id="svg8cb5dc6a-text-glow" x="-20%" y="-20%" width="140%" height="140%">
      <feDropShadow dx="0" dy="0" stdDeviation="2" flood-color="#000000" flood-opacity="0.4"/>
    </filter>
    <marker id="svg8cb5dc6a-arrowhead" markerWidth="10" markerHeight="7" refX="9" refY="3.5" orient="auto" markerUnits="strokeWidth">
      <polygon points="0 0, 10 3.5, 0 7" fill="var(--muted-text)" opacity="0.6"/>
    </marker>
    <marker id="svg8cb5dc6a-PHX_SEQUENCE_DIRECTION_ARROW" markerWidth="18" markerHeight="18" refX="16" refY="9" orient="auto" markerUnits="userSpaceOnUse">
      <path d="M 0 0 L 18 9 L 0 18 Z" fill="var(--muted-text)" opacity="0.9"/>
    </marker>
  </defs>
  <rect width="100%" height="100%" fill="var(--background)" id="CANVAS_BG"/>
  <rect width="100%" height="100%" fill="url(#svg8cb5dc6a-napkin-hatch)"/>
  <rect id="UNIVERSAL_EDGE_VIGNETTE" width="100%" height="100%" fill="url(#svg8cb5dc6a-universal-edge-vignette)" opacity="0.62"/>
  <text id="TITLE" x="960.0" y="59" text-anchor="middle" font-size="63" font-weight="700" fill="#0f172a" style="font-size: 69px; font-family: 'Segoe UI Variable Display', 'Aptos Display', 'Inter', 'Segoe UI', Helvetica, Arial, sans-serif; font-weight: 800; font-kerning: normal; font-feature-settings: &quot;kern&quot; 1, &quot;liga&quot; 1; letter-spacing:-1.2px;" data-final-font-size="69">
    <tspan x="960.0" dy="70.47px">Rendlesham Forest Patrol Investigation Steps</tspan>
  </text>
  <rect id="TITLE_FRAME" x="134" y="59" width="1652" height="103" fill="none"/>
  <g id="DIAGRAM_SCALER">
    <line x1="960" y1="210" x2="960" y2="940" stroke="var(--border)" stroke-width="20" stroke-linecap="round" opacity="0.1" marker-end="url(#svg8cb5dc6a-PHX_SEQUENCE_DIRECTION_ARROW)" data-direction-cue="forward"/>
    <line x1="960" y1="210" x2="960" y2="940" stroke="var(--muted-text)" stroke-width="7" stroke-linecap="round" opacity="0.48"/>
    <circle cx="960" cy="210" r="10" fill="var(--border)" opacity="0.35"/>
    <path d="M 960 972 L 980 940 L 940 940 Z" fill="var(--muted-text)" opacity="0.5"/>
    <g transform="translate(960, 260)">
      <circle cx="0" cy="0" r="18" fill="var(--panel)" stroke="var(--border)" stroke-width="4"/>
      <circle cx="0" cy="0" r="7" fill="var(--accent-1)"/>
      <line x1="0" y1="0" x2="220" y2="0" stroke="var(--accent-1)" stroke-width="16" stroke-linecap="round" opacity="0.18"/>
      <line x1="0" y1="0" x2="220" y2="0" stroke="var(--accent-1)" stroke-width="4" stroke-linecap="round"/>
      <circle cx="220" cy="0" r="72" fill="var(--accent-1)" opacity="0.14"/>
      <circle id="ITEM_1_NODE" cx="220" cy="0" r="56" fill="var(--panel)" stroke="var(--accent-1)" stroke-width="2" stroke-opacity="0.58" data-badge-layer="outline"/>
      <circle id="ITEM_1_PAD" cx="220" cy="0" r="50" fill="var(--icon-pad-bg)" stroke="var(--accent-1)" opacity="1" fill-opacity="0.9" stroke-width="2" stroke-opacity="0.72" data-badge-layer="pad"/>
      <circle id="ITEM_1_PAD_INNER" cx="220" cy="0" r="39.00" fill="var(--accent-1)" fill-opacity="0.12" stroke="none" data-badge-layer="tint"/>
      <circle cx="220" cy="0" r="40" fill="none" stroke="var(--accent-1)" stroke-width="3" stroke-dasharray="6 4" display="none" data-suppressed-decoration="redundant-badge-ring"/>
      <g id="ITEM_1_ICON" transform="translate(188, -32)" data-icon-size="64" stroke-linecap="round" stroke-linejoin="round" data-badge-treatment="clean">
        <g transform="translate(-9.94957983193277,-9.621848739495798) scale(3.495798319327731)" vector-effect="non-scaling-stroke" stroke-width="2.48" stroke-linecap="round" stroke-linejoin="round" stroke-opacity="1.0">
          <path d="M4.9 16.1C1 12.2 1 5.8 4.9 1.9" vector-effect="non-scaling-stroke" fill="none" stroke="#f1f5f9"/>
          <path d="M7.8 4.7a6.14 6.14 0 0 0-.8 7.5" vector-effect="non-scaling-stroke" fill="none" stroke="#f1f5f9"/>
          <circle cx="12" cy="9" r="2" vector-effect="non-scaling-stroke" fill="none" stroke="#f1f5f9"/>
          <path d="M16.2 4.8c2 2 2.26 5.11.8 7.47" vector-effect="non-scaling-stroke" fill="none" stroke="#f1f5f9"/>
          <path d="M19.1 1.9a9.96 9.96 0 0 1 0 14.1" vector-effect="non-scaling-stroke" fill="none" stroke="#f1f5f9"/>
          <path d="M9.5 18h5" vector-effect="non-scaling-stroke" fill="none" stroke="#f1f5f9"/>
          <path d="m8 22 4-11 4 11" vector-effect="non-scaling-stroke" fill="none" stroke="#f1f5f9"/>
        </g>
      </g>
      <g transform="translate(332, 0)">
        <path id="ITEM_1_TEXT_BG" d="M -26 -50 L 378 -50 L 420 -10 L 420 148 L 34 148 L -50 86 L -50 18 Z" fill="var(--panel)" fill-opacity="0.96" stroke="var(--primary-text)" stroke-opacity="0.12" stroke-width="1.5" filter="url(#svg8cb5dc6a-shadow)"/>
        <rect x="392" y="-30" width="10" height="110" rx="5" fill="var(--accent-1)" opacity="0.7"/>
        <line x1="24" y1="10" x2="354" y2="10" stroke="var(--accent-1)" stroke-width="3" opacity="0.3"/>
        <text id="ITEM_1_HEAD" data-bg-id="ITEM_1_TEXT_BG" font-weight="700" font-size="32" fill="var(--accent-1)" x="24.0" y="-30.0" fill-opacity="1.0" style="font-size: 31px; font-family: 'Segoe UI Variable Display', 'Aptos Display', 'Inter', 'Segoe UI', Helvetica, Arial, sans-serif; font-weight: 700; font-kerning: normal; font-feature-settings: &quot;kern&quot; 1, &quot;liga&quot; 1; letter-spacing:-0.4px;" data-final-font-size="31">
          <tspan x="24.0" dy="26.52px">Initial Reporting</tspan>
        </text>
        <rect id="ITEM_1_HEAD_FRAME" x="24" y="-30" width="338" height="36" fill="none"/>
        <text id="ITEM_1_BODY" data-bg-id="ITEM_1_TEXT_BG" font-size="22" fill="var(--primary-text)" opacity="0.92" x="24.0" y="24.0" style="font-size: 22px; font-family: 'Segoe UI Variable Text', 'Aptos', 'Inter', 'Segoe UI', Helvetica, Arial, sans-serif; font-weight: 400; font-kerning: normal; font-feature-settings: &quot;kern&quot; 1, &quot;liga&quot; 1;" data-final-font-size="22">
          <tspan x="24.0" dy="18.02px">Unusual lights near RAF</tspan>
          <tspan x="24.0" dy="25.30px">Woodbridge trigger a</tspan>
          <tspan x="24.0" dy="25.30px">follow-up patrol</tspan>
        </text>
        <rect id="ITEM_1_BODY_FRAME" x="24" y="24" width="356" height="78" fill="none"/>
      </g>
    </g>
    <g transform="translate(960, 440)">
      <circle cx="0" cy="0" r="18" fill="var(--panel)" stroke="var(--border)" stroke-width="4"/>
      <circle cx="0" cy="0" r="7" fill="var(--accent-2)"/>
      <line x1="0" y1="0" x2="-220" y2="0" stroke="var(--accent-2)" stroke-width="16" stroke-linecap="round" opacity="0.18"/>
      <line x1="0" y1="0" x2="-220" y2="0" stroke="var(--accent-2)" stroke-width="4" stroke-linecap="round"/>
      <circle cx="-220" cy="0" r="72" fill="var(--accent-2)" opacity="0.14"/>
      <circle id="ITEM_2_NODE" cx="-220" cy="0" r="56" fill="var(--panel)" stroke="var(--accent-2)" stroke-width="2" stroke-opacity="0.58" data-badge-layer="outline"/>
      <circle id="ITEM_2_PAD" cx="-220" cy="0" r="50" fill="var(--icon-pad-bg)" stroke="var(--accent-2)" opacity="1" fill-opacity="0.9" stroke-width="2" stroke-opacity="0.72" data-badge-layer="pad"/>
      <circle id="ITEM_2_PAD_INNER" cx="-220" cy="0" r="39.00" fill="var(--accent-2)" fill-opacity="0.12" stroke="none" data-badge-layer="tint"/>
      <circle cx="-220" cy="0" r="40" fill="none" stroke="var(--accent-2)" stroke-width="3" stroke-dasharray="6 4" display="none" data-suppressed-decoration="redundant-badge-ring"/>
      <g id="ITEM_2_ICON" transform="translate(-252, -32)" data-icon-size="64" stroke-linecap="round" stroke-linejoin="round" data-badge-treatment="clean">
        <g transform="translate(-9.578512396694215,-9.578512396694215) scale(0.16115702479338842)" vector-effect="non-scaling-stroke" fill="#f1f5f9" fill-opacity="1.0" stroke="none">
          <path fill="#f1f5f9" d="M257.625 16.75c-132.32 0-239.78 107.46-239.78 239.78s107.46 239.783 239.78 239.783s239.78-107.462 239.78-239.782s-107.46-239.78-239.78-239.78zm0 17.906c58.24 0 111.19 22.37 150.75 59c-53.35-22.728-121.28 4.247-156.97-18.594c15.65 28.19 42.047 29.17 74.032 27.438c22.816 27.9 61.838 17.83 106.782 17a221 221 0 0 1 38.31 74.406c-23.755 6.825-72.6 4.008-92.374-.875c8.236 8.03 19.117 12.027 32.094 14.595c-48.222 1.067-94.365 5.457-124.375-11.688c8.84 14.213 20.115 23.206 33.28 28.625c-19.962-.433-38.48-3.21-54.905-11.093c26.83 30.444 69.098 30.62 114.47 26.28c31.063 11.3 66.71 13.98 100.717 12.375c.03 1.47.063 2.93.063 4.406c0 19.2-2.428 37.834-7 55.595c-9.933-2.477-20.396-4.745-31.313-6.78l6.907-25.44l-18.03-4.874l-7.377 27.126c-14.308-2.26-29.233-4.163-44.593-5.75l3.344-31.375l-18.594-2l-3.375 31.626c-17.664-1.49-35.795-2.55-54.095-3.22l1.375-34.623l-18.656-.75l-1.406 34.812c-11.082-.238-22.19-.33-33.282-.28c-6.816.03-13.623.142-20.406.28l-1.5-37.72l-18.656.75l1.5 37.47a1198 1198 0 0 0-52.03 2.938l-4.033-37.688l-18.56 1.97l3.968 37.342c-14.93 1.44-29.428 3.16-43.22 5.157l-8.812-32.5l-18.03 4.906l8.28 30.5c-13.984 2.39-27.106 5.07-39.187 8.063c-4.562-17.742-6.97-36.357-6.97-55.532c0-30.21 6.03-58.983 16.938-85.217c45.587 15.482 137.805-12.232 208.062 16.468c-13.577-12.7-29.093-20.01-45.53-24.53c42.76 4.614 101.767-13.058 162.343 11.688c-13.39-12.526-28.787-19.426-44.97-23.97c-31.258-26.39-71.34-28.437-109.812-27.437c-36.037-25.845-82.634-23.168-124.31-21.655c40.3-41.466 96.683-67.22 159.155-67.22zm-4.22 275.125c10.84-.048 21.707.064 32.532.283l-1 24.75a1361 1361 0 0 0-50.156.312l-1-25.094c6.533-.125 13.063-.22 19.626-.25zm-38.31.783l1 25.156c-16.37.62-32.73 1.506-49.064 2.655l-2.686-25.094c16.482-1.244 33.504-2.136 50.75-2.717m89.53.03c17.893.626 35.6 1.606 52.813 3l-2.563 23.97a1245 1245 0 0 0-51.22-2.407zm-158.906 4.25l2.655 24.97a1691 1691 0 0 0-36.47 3.375l-6.436-23.75c12.845-1.773 26.32-3.3 40.25-4.594zm230.343.438c14.38 1.44 28.335 3.135 41.687 5.158l-6.063 22.343a1175 1175 0 0 0-38.156-3.81l2.533-23.69zm-289.188 6.97l6.22 23a1913 1913 0 0 0-36.845 4.594a221 221 0 0 1-8.063-19.844c11.808-2.878 24.784-5.464 38.688-7.75m349.375 1.28c10.804 1.955 21.1 4.112 30.813 6.5a221 221 0 0 1-7.813 19.283a1121 1121 0 0 0-28.844-4.22z" vector-effect="non-scaling-stroke" stroke="none"/>
        </g>
      </g>
      <g transform="translate(-332, 0)">
        <path id="ITEM_2_TEXT_BG" d="M 26 -50 L -378 -50 L -420 -10 L -420 148 L -34 148 L 50 86 L 50 18 Z" fill="var(--panel)" fill-opacity="0.96" stroke="var(--primary-text)" stroke-opacity="0.12" stroke-width="1.5" filter="url(#svg8cb5dc6a-shadow)"/>
        <rect x="-402" y="-30" width="10" height="110" rx="5" fill="var(--accent-2)" opacity="0.7"/>
        <line x1="-24" y1="10" x2="-354" y2="10" stroke="var(--accent-2)" stroke-width="3" opacity="0.3"/>
        <text id="ITEM_2_HEAD" data-bg-id="ITEM_2_TEXT_BG" text-anchor="end" font-weight="700" font-size="32" fill="var(--accent-2)" x="-24.0" y="-30.0" fill-opacity="1.0" style="font-size: 31px; font-family: 'Segoe UI Variable Display', 'Aptos Display', 'Inter', 'Segoe UI', Helvetica, Arial, sans-serif; font-weight: 700; font-kerning: normal; font-feature-settings: &quot;kern&quot; 1, &quot;liga&quot; 1; letter-spacing:-0.4px;" data-final-font-size="31">
          <tspan x="-24.0" dy="26.52px">Field Recording</tspan>
        </text>
        <rect id="ITEM_2_HEAD_FRAME" x="-362" y="-30" width="338" height="36" fill="none"/>
        <text id="ITEM_2_BODY" data-bg-id="ITEM_2_TEXT_BG" text-anchor="end" font-size="22" fill="var(--primary-text)" opacity="0.92" x="-24.0" y="24.0" style="font-size: 22px; font-family: 'Segoe UI Variable Text', 'Aptos', 'Inter', 'Segoe UI', Helvetica, Arial, sans-serif; font-weight: 400; font-kerning: normal; font-feature-settings: &quot;kern&quot; 1, &quot;liga&quot; 1;" data-final-font-size="22">
          <tspan x="-24.0" dy="18.02px">Lieutenant Colonel Halt uses</tspan>
          <tspan x="-24.0" dy="25.30px">a handheld Dictaphone to document</tspan>
          <tspan x="-24.0" dy="25.30px">observations</tspan>
        </text>
        <rect id="ITEM_2_BODY_FRAME" x="-380" y="24" width="356" height="78" fill="none"/>
      </g>
    </g>
    <g transform="translate(960, 620)">
      <circle cx="0" cy="0" r="18" fill="var(--panel)" stroke="var(--border)" stroke-width="4"/>
      <circle cx="0" cy="0" r="7" fill="var(--accent-3)"/>
      <line x1="0" y1="0" x2="220" y2="0" stroke="var(--accent-3)" stroke-width="16" stroke-linecap="round" opacity="0.18"/>
      <line x1="0" y1="0" x2="220" y2="0" stroke="var(--accent-3)" stroke-width="4" stroke-linecap="round"/>
      <circle cx="220" cy="0" r="72" fill="var(--accent-3)" opacity="0.14"/>
      <circle id="ITEM_3_NODE" cx="220" cy="0" r="56" fill="var(--panel)" stroke="var(--accent-3)" stroke-width="2" stroke-opacity="0.58" data-badge-layer="outline"/>
      <circle id="ITEM_3_PAD" cx="220" cy="0" r="50" fill="var(--icon-pad-bg)" stroke="var(--accent-3)" opacity="1" fill-opacity="0.9" stroke-width="2" stroke-opacity="0.72" data-badge-layer="pad"/>
      <circle id="ITEM_3_PAD_INNER" cx="220" cy="0" r="39.00" fill="var(--accent-3)" fill-opacity="0.12" stroke="none" data-badge-layer="tint"/>
      <circle cx="220" cy="0" r="40" fill="none" stroke="var(--accent-3)" stroke-width="3" stroke-dasharray="6 4" display="none" data-suppressed-decoration="redundant-badge-ring"/>
      <g id="ITEM_3_ICON" transform="translate(188, -32)" data-icon-size="64" stroke-linecap="round" stroke-linejoin="round" data-badge-treatment="clean">
        <g transform="translate(-12.571428571428571,-22.32142857142857) scale(2.7857142857142856)">
          <path d="M24.99 19.88C24.99 19.88 20.23 19.24 18.94 15.52H18.93V11.59C18.93 10.16 17.77 9 16.34 9H4.59C3.16 9 2 10.16 2 11.59V15.53V25.93H11.4C12.96 25.93 14.22 26.19 14.22 27.75H27.06C28.13 27.75 29 27.88 29 26.81L30 25.94C30.01 22.97 27.9 20.43 24.99 19.88Z" fill="#FFB02E"/>
          <path d="M2 13.84V11.59C2 10.16 3.16 9 4.59 9H10.86V11.91C10.86 12.98 9.99 13.84 8.93 13.84H2Z" fill="#7D4533"/>
          <path d="M18.6186 13.0202C18.9998 13.0154 19.3049 12.7026 19.3002 12.3214C19.2954 11.9402 18.9825 11.6351 18.6013 11.6398L16.2013 11.6698C15.8201 11.6746 15.515 11.9875 15.5198 12.3686C15.5245 12.7498 15.8374 13.055 16.2186 13.0502L18.6186 13.0202Z" fill="#7D4533"/>
          <path d="M30 25.93V27.54C30 28 30.03 28.16 29.89 28.49C29.68 29.29 28.97 29.89 28.15 29.98C27.22 30.08 26.39 29.54 26.06 28.75H25.02C24.72 29.48 23.99 29.99 23.15 29.99C22.31 29.99 21.59 29.48 21.28 28.75H20.24C19.94 29.48 19.21 29.99 18.37 29.99C17.53 29.99 16.81 29.48 16.5 28.75H15.46C15.16 29.48 14.43 29.99 13.59 29.99C12.75 29.99 12.03 29.48 11.72 28.75H10.68C10.38 29.48 9.65 29.99 8.81 29.99C7.97 29.99 7.25 29.48 6.94 28.75H5.9C5.6 29.48 4.87 29.99 4.03 29.99C2.91 29.99 2 29.08 2 27.96V25.93H30Z" fill="#7D4533"/>
          <path d="M19.3001 15.5385C19.3065 15.9196 19.0026 16.2338 18.6215 16.2401L16.2215 16.2801C15.8403 16.2865 15.5262 15.9827 15.5198 15.6015C15.5135 15.2203 15.8173 14.9062 16.1985 14.8998L18.5985 14.8598C18.9796 14.8535 19.2938 15.1573 19.3001 15.5385Z" fill="#7D4533"/>
        </g>
      </g>
      <g transform="translate(332, 0)">
        <path id="ITEM_3_TEXT_BG" d="M -26 -50 L 378 -50 L 420 -10 L 420 148 L 34 148 L -50 86 L -50 18 Z" fill="var(--panel)" fill-opacity="0.96" stroke="var(--primary-text)" stroke-opacity="0.12" stroke-width="1.5" filter="url(#svg8cb5dc6a-shadow)"/>
        <rect x="392" y="-30" width="10" height="110" rx="5" fill="var(--accent-3)" opacity="0.7"/>
        <line x1="24" y1="10" x2="354" y2="10" stroke="var(--accent-3)" stroke-width="3" opacity="0.3"/>
        <text id="ITEM_3_HEAD" data-bg-id="ITEM_3_TEXT_BG" font-weight="700" font-size="32" fill="var(--accent-3)" x="24.0" y="-30.0" fill-opacity="1.0" style="font-size: 31px; font-family: 'Segoe UI Variable Display', 'Aptos Display', 'Inter', 'Segoe UI', Helvetica, Arial, sans-serif; font-weight: 700; font-kerning: normal; font-feature-settings: &quot;kern&quot; 1, &quot;liga&quot; 1; letter-spacing:-0.4px;" data-final-font-size="31">
          <tspan x="24.0" dy="26.52px">Active Observation</tspan>
        </text>
        <rect id="ITEM_3_HEAD_FRAME" x="24" y="-30" width="338" height="36" fill="none"/>
        <text id="ITEM_3_BODY" data-bg-id="ITEM_3_TEXT_BG" font-size="22" fill="var(--primary-text)" opacity="0.92" x="24.0" y="24.0" style="font-size: 22px; font-family: 'Segoe UI Variable Text', 'Aptos', 'Inter', 'Segoe UI', Helvetica, Arial, sans-serif; font-weight: 400; font-kerning: normal; font-feature-settings: &quot;kern&quot; 1, &quot;liga&quot; 1;" data-final-font-size="22">
          <tspan x="24.0" dy="23.08px">Patrol moves through forest while</tspan>
          <tspan x="24.0" dy="25.30px">recording lights and radiation</tspan>
        </text>
        <rect id="ITEM_3_BODY_FRAME" x="24" y="24" width="356" height="78" fill="none"/>
      </g>
    </g>
    <g transform="translate(960, 800)">
      <circle cx="0" cy="0" r="18" fill="var(--panel)" stroke="var(--border)" stroke-width="4"/>
      <circle cx="0" cy="0" r="7" fill="var(--accent-4)"/>
      <line x1="0" y1="0" x2="-220" y2="0" stroke="var(--accent-4)" stroke-width="16" stroke-linecap="round" opacity="0.18"/>
      <line x1="0" y1="0" x2="-220" y2="0" stroke="var(--accent-4)" stroke-width="4" stroke-linecap="round"/>
      <circle cx="-220" cy="0" r="72" fill="var(--accent-4)" opacity="0.14"/>
      <circle id="ITEM_4_NODE" cx="-220" cy="0" r="56" fill="var(--panel)" stroke="var(--accent-1)" stroke-width="2" stroke-opacity="0.58" data-badge-layer="outline"/>
      <circle id="ITEM_4_PAD" cx="-220" cy="0" r="50" fill="var(--icon-pad-bg)" stroke="var(--accent-1)" opacity="1" fill-opacity="0.9" stroke-width="2" stroke-opacity="0.72" data-badge-layer="pad"/>
      <circle id="ITEM_4_PAD_INNER" cx="-220" cy="0" r="39.00" fill="var(--accent-1)" fill-opacity="0.12" stroke="none" data-badge-layer="tint"/>
      <circle cx="-220" cy="0" r="40" fill="none" stroke="var(--accent-4)" stroke-width="3" stroke-dasharray="6 4" display="none" data-suppressed-decoration="redundant-badge-ring"/>
      <g id="ITEM_4_ICON" transform="translate(-252, -32)" data-icon-size="64" stroke-linecap="round" stroke-linejoin="round" data-badge-treatment="clean">
        <g transform="translate(-14.222222222222221,-16.388888888888886) scale(3.8518518518518516)" vector-effect="non-scaling-stroke" fill="#f1f5f9" fill-opacity="1.0" stroke="none">
          <path fill="#f1f5f9" d="M20 13h-4c0 1.1-.9 2-2 2h-4c-1.1 0-2-.9-2-2H4l-2 5v2c0 1.1.9 2 2 2h16c1.1 0 2-.9 2-2v-2M6 20c-.89 0-1.34-1.08-.71-1.71S7 18.11 7 19c0 .55-.45 1-1 1m4 0c-.89 0-1.34-1.08-.71-1.71S11 18.11 11 19c0 .55-.45 1-1 1m4 0c-.89 0-1.34-1.08-.71-1.71S15 18.11 15 19c0 .55-.45 1-1 1m4 0c-.89 0-1.34-1.08-.71-1.71S19 18.11 19 19c0 .55-.45 1-1 1m0-10V3H6v7H3v2h18v-2M8 5h8v1H8m0 1h6v1H8" vector-effect="non-scaling-stroke" stroke="none"/>
        </g>
      </g>
      <g transform="translate(-332, 0)">
        <path id="ITEM_4_TEXT_BG" d="M 26 -50 L -378 -50 L -420 -10 L -420 148 L -34 148 L 50 86 L 50 18 Z" fill="var(--panel)" fill-opacity="0.96" stroke="var(--primary-text)" stroke-opacity="0.12" stroke-width="1.5" filter="url(#svg8cb5dc6a-shadow)"/>
        <rect x="-402" y="-30" width="10" height="110" rx="5" fill="var(--accent-4)" opacity="0.7"/>
        <line x1="-24" y1="10" x2="-354" y2="10" stroke="var(--accent-4)" stroke-width="3" opacity="0.3"/>
        <text id="ITEM_4_HEAD" data-bg-id="ITEM_4_TEXT_BG" text-anchor="end" font-weight="700" font-size="32" fill="var(--accent-1)" x="-24.0" y="-30.0" fill-opacity="1.0" style="font-size: 31px; font-family: 'Segoe UI Variable Display', 'Aptos Display', 'Inter', 'Segoe UI', Helvetica, Arial, sans-serif; font-weight: 700; font-kerning: normal; font-feature-settings: &quot;kern&quot; 1, &quot;liga&quot; 1; letter-spacing:-0.4px;" data-final-font-size="31">
          <tspan x="-24.0" dy="26.52px">Formal Documentation</tspan>
        </text>
        <rect id="ITEM_4_HEAD_FRAME" x="-362" y="-30" width="338" height="36" fill="none"/>
        <text id="ITEM_4_BODY" data-bg-id="ITEM_4_TEXT_BG" text-anchor="end" font-size="22" fill="var(--primary-text)" opacity="0.92" x="-24.0" y="24.0" style="font-size: 22px; font-family: 'Segoe UI Variable Text', 'Aptos', 'Inter', 'Segoe UI', Helvetica, Arial, sans-serif; font-weight: 400; font-kerning: normal; font-feature-settings: &quot;kern&quot; 1, &quot;liga&quot; 1;" data-final-font-size="22">
          <tspan x="-24.0" dy="18.02px">Halt summarizes the multi-hour</tspan>
          <tspan x="-24.0" dy="25.30px">expedition into a concise</tspan>
          <tspan x="-24.0" dy="25.30px">memorandum</tspan>
        </text>
        <rect id="ITEM_4_BODY_FRAME" x="-380" y="24" width="356" height="78" fill="none"/>
      </g>
    </g>
    <line id="PHX_SEQUENCE_MIDROUTE_ARROW_1" x1="960.0" y1="547.0" x2="960.0" y2="603.0" stroke="var(--muted-text)" opacity="0.92" stroke-width="5" stroke-linecap="round" marker-end="url(#svg8cb5dc6a-PHX_SEQUENCE_DIRECTION_ARROW)" data-direction-cue="forward"/>
  </g>
  <text id="SOURCE_NOTE" x="134.0" y="1058.0" fill="var(--muted-text)" opacity="1" style="font-family: var(--font-family); font-size: 20px;">Source: Commons File:Rendelsham.ogg</text>
</svg>
