<?xml version='1.0' encoding='utf-8'?>
<svg xmlns="http://www.w3.org/2000/svg" width="1920" height="1080" viewBox="0 0 1920 1080" data-theme="dark" data-semantic-intent="sequence" data-relation-type="sequence" data-site-visual-identity="signal-cobalt">
  <style>
        @font-face {
            font-family: 'Inter';
            src: url('assets/fonts/Inter-Regular.ttf') format('truetype');
            font-weight: 400;
            font-style: normal;
            font-display: swap;
        }
        @font-face {
            font-family: 'Inter';
            src: url('assets/fonts/Inter-Bold.ttf') format('truetype');
            font-weight: 600;
            font-style: normal;
            font-display: swap;
        }
        @font-face {
            font-family: 'Inter';
            src: url('assets/fonts/Inter-Bold.ttf') format('truetype');
            font-weight: 800;
            font-style: normal;
            font-display: swap;
        }
        
:root {
    --background: #0f172a;
    --panel: #1e293b;
    --primary-text: #f1f5f9;
    --muted-text: #94a3b8;
    --inverse-text: #0f172a;
    --border: #334155;
    --shadow-color: #000000;
    --icon-pad-bg: #1e293b;
    --art-glow: #7dd3fc;
    --art-glow-opacity: 0.18;
    --art-sheen: #ffffff;
    --art-sheen-opacity: 0.18;
    --art-shadow: #000000;
    --art-shadow-opacity: 0.28;
    --art-muted-line: #64748b;
    --art-panel-tint: #1e293b;
    --semantic-risk: #f87171;
    --semantic-warning: #fb923c;
    --semantic-uncertain: #fbbf24;
    --semantic-evidence: #60a5fa;
    --semantic-claim: #c084fc;
    --semantic-positive: #4ade80;
    --semantic-outcome: #22d3ee;
    --font-family: 'Inter', 'Segoe UI', 'Kalam', Roboto, Helvetica, Arial, sans-serif;
    --radius-xl: 16px;
    --font-family-headline: 'Segoe UI Variable Display', 'Aptos Display', 'Inter', 'Segoe UI', Helvetica, Arial, sans-serif;
    --font-family-body: 'Segoe UI Variable Text', 'Aptos', 'Inter', 'Segoe UI', Helvetica, Arial, sans-serif;
    --font-heading: var(--font-family-headline);
    --font-body: var(--font-family-body);
    --font-size-h1: 64px;
    --font-size-h2: 42px;
    --font-size-h3: 29px;
    --font-size-body: 21px;
    --font-size-caption: 17px;
    --secondary-text: var(--muted-text);
    --panel-border: var(--border);
    --font-weight-normal: 400;
    --font-weight-medium: 500;
    --font-weight-semibold: 600;
    --font-weight-bold: 700;
    --spacing-gutter-pct: 0.07;
    --spacing-top-pct: 0.15;
    --spacing-bottom-pct: 0.07;
    --spacing-title-y-pct: 0.055;
    --accent-1: #93c5fd;
    --accent-2: #60a5fa;
    --accent-3: #818cf8;
    --accent-4: #a78bfa;
    --accent-5: #38bdf8;
    --accent-6: #fb923c;
}
:root[data-theme="dark"] {
    --background: #0f172a;
    --panel: #1e293b;
    --primary-text: #f1f5f9;
    --muted-text: #94a3b8;
    --inverse-text: #0f172a;
    --border: #334155;
    --shadow-color: #000000;
    --icon-pad-bg: #1e293b;
    --art-glow: #7dd3fc;
    --art-glow-opacity: 0.18;
    --art-sheen: #ffffff;
    --art-sheen-opacity: 0.18;
    --art-shadow: #000000;
    --art-shadow-opacity: 0.28;
    --art-muted-line: #64748b;
    --art-panel-tint: #1e293b;
    --semantic-risk: #f87171;
    --semantic-warning: #fb923c;
    --semantic-uncertain: #fbbf24;
    --semantic-evidence: #60a5fa;
    --semantic-claim: #c084fc;
    --semantic-positive: #4ade80;
    --semantic-outcome: #22d3ee;
    --accent-1: #93c5fd;
    --accent-2: #60a5fa;
    --accent-3: #818cf8;
    --accent-4: #a78bfa;
    --accent-5: #38bdf8;
    --accent-6: #fb923c;
}
:root[data-theme="light"] {
    --background: #f8fafc;
    --panel: #ffffff;
    --primary-text: #0f172a;
    --muted-text: #64748b;
    --inverse-text: #ffffff;
    --border: #e2e8f0;
    --shadow-color: #000000;
    --icon-pad-bg: #1e293b;
    --art-glow: #0891b2;
    --art-glow-opacity: 0.10;
    --art-sheen: #ffffff;
    --art-sheen-opacity: 0.34;
    --art-shadow: #0f172a;
    --art-shadow-opacity: 0.14;
    --art-muted-line: #94a3b8;
    --art-panel-tint: #f1f5f9;
    --semantic-risk: #b91c1c;
    --semantic-warning: #c2410c;
    --semantic-uncertain: #a16207;
    --semantic-evidence: #1d4ed8;
    --semantic-claim: #6d28d9;
    --semantic-positive: #15803d;
    --semantic-outcome: #0e7490;
    --accent-1: #1d4ed8;
    --accent-2: #2563eb;
    --accent-3: #4f46e5;
    --accent-4: #6d28d9;
    --accent-5: #0369a1;
    --accent-6: #c2410c;
}</style>
  <rect x="0" y="0" width="1.92E+3" height="1.08E+3" fill="#0f172a" stroke="none" id="programmatic_background"/>
  <line id="HEADER_DECOR" x1="960.0" x2="1080.0" y1="135.0" y2="135.0" stroke="var(--accent-1)" stroke-width="6" stroke-linecap="round"/>
  <defs>
    <pattern id="svg0af5eea0-napkin-hatch" patternUnits="userSpaceOnUse" width="12" height="12">
      <path d="M -3 12 L 12 -3 M 0 15 L 15 0" fill="none" stroke="var(--primary-text)" stroke-width="1" stroke-opacity="0.05"/>
    </pattern>
    <radialGradient id="svg0af5eea0-universal-edge-vignette" cx="50%" cy="50%" r="72%">
      <stop offset="0%" stop-color="var(--background)" stop-opacity="0"/>
      <stop offset="72%" stop-color="var(--background)" stop-opacity="0.12"/>
      <stop offset="100%" stop-color="var(--primary-text)" stop-opacity="0.08"/>
    </radialGradient>
    <linearGradient id="svg0af5eea0-universal-surface-sheen" x1="0%" y1="0%" x2="100%" y2="100%">
      <stop offset="0%" stop-color="var(--art-sheen)" stop-opacity="var(--art-sheen-opacity)"/>
      <stop offset="46%" stop-color="var(--art-sheen)" stop-opacity="0.035"/>
      <stop offset="100%" stop-color="var(--art-panel-tint)" stop-opacity="0.14"/>
    </linearGradient>
    <radialGradient id="svg0af5eea0-universal-icon-aura" cx="50%" cy="42%" r="64%">
      <stop offset="0%" stop-color="var(--art-glow)" stop-opacity="var(--art-glow-opacity)"/>
      <stop offset="100%" stop-color="var(--background)" stop-opacity="0"/>
    </radialGradient>
    <linearGradient id="svg0af5eea0-timeline-snake-route-glow" x1="0%" y1="0%" x2="100%" y2="100%">
      <stop offset="0%" stop-color="var(--art-glow)" stop-opacity="0"/>
      <stop offset="48%" stop-color="var(--art-glow)" stop-opacity="var(--art-glow-opacity)"/>
      <stop offset="100%" stop-color="var(--art-glow)" stop-opacity="0"/>
    </linearGradient>
    <linearGradient id="svg0af5eea0-timeline-snake-card-sheen" x1="0%" y1="0%" x2="100%" y2="100%">
      <stop offset="0%" stop-color="var(--art-sheen)" stop-opacity="var(--art-sheen-opacity)"/>
      <stop offset="100%" stop-color="var(--art-panel-tint)" stop-opacity="0.12"/>
    </linearGradient>
    <filter id="svg0af5eea0-text-glow" x="-20%" y="-20%" width="140%" height="140%">
      <feDropShadow dx="0" dy="0" stdDeviation="2" flood-color="#000000" flood-opacity="0.4"/>
    </filter>
    <filter id="svg0af5eea0-shadow" x="-30%" y="-30%" width="160%" height="160%">
      <feDropShadow dx="0" dy="2" stdDeviation="3" flood-color="#000000" flood-opacity="0.08"/>
      <feDropShadow dx="0" dy="6" stdDeviation="10" flood-color="#000000" flood-opacity="0.12"/>
    </filter>
    <marker id="svg0af5eea0-arrowhead" markerWidth="10" markerHeight="7" refX="9" refY="3.5" orient="auto" markerUnits="strokeWidth">
      <polygon points="0 0, 10 3.5, 0 7" fill="var(--muted-text)" opacity="0.6"/>
    </marker>
    <marker id="svg0af5eea0-PHX_SEQUENCE_DIRECTION_ARROW" markerWidth="18" markerHeight="18" refX="16" refY="9" orient="auto" markerUnits="userSpaceOnUse">
      <path d="M 0 0 L 18 9 L 0 18 Z" fill="var(--muted-text)" opacity="0.9"/>
    </marker>
  </defs>
  <rect width="100%" height="100%" fill="var(--background)" id="CANVAS_BG"/>
  <rect width="100%" height="100%" fill="url(#svg0af5eea0-napkin-hatch)"/>
  <rect id="UNIVERSAL_EDGE_VIGNETTE" width="100%" height="100%" fill="url(#svg0af5eea0-universal-edge-vignette)" opacity="0.62"/>
  <text id="TITLE" x="960.0" y="59" font-size="63" font-weight="700" fill="#f1f5f9" style="font-size: 69px; font-family: 'Segoe UI Variable Display', 'Aptos Display', 'Inter', 'Segoe UI', Helvetica, Arial, sans-serif; font-weight: 800; font-kerning: normal; font-feature-settings: &quot;kern&quot; 1, &quot;liga&quot; 1; letter-spacing:-1.2px;" text-anchor="middle" data-final-font-size="69">
    <tspan x="960.0" dy="70.47px">Requirements for Conclusive UFO Proof</tspan>
  </text>
  <rect id="TITLE_FRAME" x="134" y="59" width="1652" height="103" fill="none"/>
  <g id="DIAGRAM_SCALER" transform="translate(50.3, 31.0) scale(0.95)">
    <path d="M 300 390 L 1560 390 C 1710 390 1710 780 1560 780 L 300 780" fill="none" stroke="var(--muted-text)" stroke-width="3" stroke-linecap="round" stroke-opacity="0.3" marker-end="url(#svg0af5eea0-PHX_SEQUENCE_DIRECTION_ARROW)" data-direction-cue="forward"/>
    <g transform="translate(300.0, 390.0)">
      <circle id="ITEM_1_BG" r="50" fill="var(--accent-1)" stroke="var(--accent-1)" stroke-width="2" fill-opacity="0.4"/>
      <rect id="ITEM_1_TEXT_BG" x="-208.0" y="81.5" width="416.0" height="202.0" rx="22" fill="var(--panel)" fill-opacity="0.94" stroke="var(--primary-text)" stroke-opacity="0.12" stroke-width="1.5"/>
      <rect id="TIMELINE_SNAKE_ART_CARD_SHEEN_1" x="-208.0" y="81.5" width="416.0" height="202.0" rx="16" fill="url(#svg0af5eea0-timeline-snake-card-sheen)" opacity="0.78" stroke="var(--accent-1)" stroke-opacity="1.0"/>
      <text id="ITEM_1_HEAD" text-anchor="middle" font-weight="bold" font-size="27" fill="var(--accent-1)" x="0.0" y="97.5" data-bg-id="ITEM_1_TEXT_BG" fill-opacity="1.0" stroke="none" style="font-size: 31px; font-family: 'Segoe UI Variable Display', 'Aptos Display', 'Inter', 'Segoe UI', Helvetica, Arial, sans-serif; font-weight: 700; font-kerning: normal; font-feature-settings: &quot;kern&quot; 1, &quot;liga&quot; 1; letter-spacing:-0.4px;" data-final-font-size="31">
        <tspan x="0.0" dy="31.02px">Continuous Audio</tspan>
      </text>
      <rect id="ITEM_1_HEAD_FRAME" x="-190" y="97.5" width="380" height="45" fill="none"/>
      <text id="ITEM_1_BODY" text-anchor="middle" font-size="19.5" fill="var(--primary-text)" x="0.0" y="147.5" data-bg-id="ITEM_1_TEXT_BG" style="font-size: 23px; font-family: 'Segoe UI Variable Text', 'Aptos', 'Inter', 'Segoe UI', Helvetica, Arial, sans-serif; font-weight: 400; font-kerning: normal; font-feature-settings: &quot;kern&quot; 1, &quot;liga&quot; 1;" opacity="0.9" data-final-font-size="23">
        <tspan x="0.0" dy="31.82px">Uninterrupted recording captures</tspan>
        <tspan x="0.0" dy="26.45px">every moment of the event</tspan>
      </text>
      <rect id="ITEM_1_BODY_FRAME" x="-190" y="147.5" width="380" height="120" fill="none"/>
      <circle id="TIMELINE_SNAKE_ART_MILESTONE_AURA_1" cx="0" cy="0" r="58" fill="url(#svg0af5eea0-universal-icon-aura)" opacity="0.82" stroke="var(--accent-1)" stroke-opacity="1.0" display="none" data-suppressed-decoration="redundant-badge-ring"/>
      <circle id="ITEM_1_PAD" cx="0" cy="0" r="39" fill="var(--icon-pad-bg)" stroke="var(--accent-1)" opacity="1" fill-opacity="0.9" stroke-width="2" stroke-opacity="0.72" data-badge-layer="pad"/>
      <circle id="ITEM_1_PAD_INNER" cx="0" cy="0" r="30.42" fill="var(--accent-1)" fill-opacity="0.12" stroke="none" data-badge-layer="tint"/>
      <circle cx="0" cy="0" r="31.2" fill="none" stroke="var(--accent-1)" stroke-width="3" stroke-dasharray="6 4" display="none" data-suppressed-decoration="redundant-badge-ring"/>
      <g id="ITEM_1_ICON" transform="translate(-30.0, -30.0)" data-icon-size="60" stroke-linecap="round" stroke-linejoin="round" data-badge-treatment="clean">
        <g transform="translate(-4.765714285714288,-5.85214285714286) scale(2.172857142857143)">
          <path d="M22.5247 17.94C26.6502 17.94 29.9947 14.5956 29.9947 10.47C29.9947 6.34443 26.6502 3 22.5247 3C18.3991 3 15.0547 6.34443 15.0547 10.47C15.0547 14.5956 18.3991 17.94 22.5247 17.94Z" fill="#533566"/>
          <path d="M2.64445 29.2101C1.81445 28.3301 1.78446 26.9601 2.56446 26.0401L15.1045 11.3401L21.2145 17.8201L5.80445 29.4801C4.84445 30.2101 3.47445 30.0901 2.64445 29.2101Z" fill="#9B9B9B"/>
          <path d="M18.9958 4.00515L28.9358 14.5552C29.5958 15.2552 29.5658 16.3552 28.8658 17.0051C28.1658 17.6651 27.0758 17.6352 26.4158 16.9352L16.4758 6.38515C15.8158 5.68515 15.8458 4.59517 16.5458 3.93517C17.2458 3.27517 18.3358 3.30515 18.9958 4.00515ZM15.4146 18.5302C15.4146 19.342 14.7565 20.0002 13.9446 20.0002C13.1328 20.0002 12.4746 19.342 12.4746 18.5302C12.4746 17.7183 13.1328 17.0602 13.9446 17.0602C14.7565 17.0602 15.4146 17.7183 15.4146 18.5302Z" fill="#BEBEBE"/>
        </g>
      </g>
    </g>
    <g transform="translate(960.0, 390.0)">
      <circle id="ITEM_2_BG" r="50" fill="var(--accent-2)" stroke="var(--accent-2)" stroke-width="2" fill-opacity="0.4"/>
      <rect id="ITEM_2_TEXT_BG" x="-208.0" y="81.5" width="416.0" height="202.0" rx="22" fill="var(--panel)" fill-opacity="0.94" stroke="var(--primary-text)" stroke-opacity="0.12" stroke-width="1.5"/>
      <rect id="TIMELINE_SNAKE_ART_CARD_SHEEN_2" x="-208.0" y="81.5" width="416.0" height="202.0" rx="16" fill="url(#svg0af5eea0-timeline-snake-card-sheen)" opacity="0.78" stroke="var(--accent-2)" stroke-opacity="1.0"/>
      <text id="ITEM_2_HEAD" text-anchor="middle" font-weight="bold" font-size="27" fill="var(--accent-2)" x="0.0" y="97.5" data-bg-id="ITEM_2_TEXT_BG" fill-opacity="1.0" stroke="none" style="font-size: 31px; font-family: 'Segoe UI Variable Display', 'Aptos Display', 'Inter', 'Segoe UI', Helvetica, Arial, sans-serif; font-weight: 700; font-kerning: normal; font-feature-settings: &quot;kern&quot; 1, &quot;liga&quot; 1; letter-spacing:-0.4px;" data-final-font-size="31">
        <tspan x="0.0" dy="31.02px">Synchronized Visuals</tspan>
      </text>
      <rect id="ITEM_2_HEAD_FRAME" x="-190" y="97.5" width="380" height="45" fill="none"/>
      <text id="ITEM_2_BODY" text-anchor="middle" font-size="19.5" fill="var(--primary-text)" x="0.0" y="147.5" data-bg-id="ITEM_2_TEXT_BG" style="font-size: 23px; font-family: 'Segoe UI Variable Text', 'Aptos', 'Inter', 'Segoe UI', Helvetica, Arial, sans-serif; font-weight: 400; font-kerning: normal; font-feature-settings: &quot;kern&quot; 1, &quot;liga&quot; 1;" opacity="0.9" data-final-font-size="23">
        <tspan x="0.0" dy="31.82px">Time-synced photos show the craft</tspan>
        <tspan x="0.0" dy="26.45px">in specific locations</tspan>
      </text>
      <rect id="ITEM_2_BODY_FRAME" x="-190" y="147.5" width="380" height="120" fill="none"/>
      <circle id="TIMELINE_SNAKE_ART_MILESTONE_AURA_2" cx="0" cy="0" r="58" fill="url(#svg0af5eea0-universal-icon-aura)" opacity="0.82" stroke="var(--accent-2)" stroke-opacity="1.0" display="none" data-suppressed-decoration="redundant-badge-ring"/>
      <circle id="ITEM_2_PAD" cx="0" cy="0" r="39" fill="var(--icon-pad-bg)" stroke="var(--accent-2)" opacity="1" fill-opacity="0.9" stroke-width="2" stroke-opacity="0.72" data-badge-layer="pad"/>
      <circle id="ITEM_2_PAD_INNER" cx="0" cy="0" r="30.42" fill="var(--accent-2)" fill-opacity="0.12" stroke="none" data-badge-layer="tint"/>
      <circle cx="0" cy="0" r="31.2" fill="none" stroke="var(--accent-2)" stroke-width="3" stroke-dasharray="6 4" display="none" data-suppressed-decoration="redundant-badge-ring"/>
      <g id="ITEM_2_ICON" transform="translate(-30.0, -30.0)" data-icon-size="60" stroke-linecap="round" stroke-linejoin="round" data-badge-treatment="clean">
        <g transform="translate(-10.560000000000002,-10.560000000000002) scale(3.3800000000000003)" vector-effect="non-scaling-stroke" stroke-width="2.43" stroke-linecap="round" stroke-linejoin="round" stroke-opacity="1.0">
          <path d="M13 15c-2 0 -5 1 -5 5" vector-effect="non-scaling-stroke" fill="none" stroke="#f1f5f9"/>
          <path d="M4 11m0 2a2 2 0 0 1 2 -2h5a2 2 0 0 1 2 2v5a2 2 0 0 1 -2 2h-5a2 2 0 0 1 -2 -2z" vector-effect="non-scaling-stroke" fill="none" stroke="#f1f5f9"/>
          <path d="M4 7v-2a1 1 0 0 1 1 -1h2" vector-effect="non-scaling-stroke" fill="none" stroke="#f1f5f9"/>
          <path d="M11 4h2" vector-effect="non-scaling-stroke" fill="none" stroke="#f1f5f9"/>
          <path d="M17 4h2a1 1 0 0 1 1 1v2" vector-effect="non-scaling-stroke" fill="none" stroke="#f1f5f9"/>
          <path d="M20 11v2" vector-effect="non-scaling-stroke" fill="none" stroke="#f1f5f9"/>
          <path d="M20 17v2a1 1 0 0 1 -1 1h-2" vector-effect="non-scaling-stroke" fill="none" stroke="#f1f5f9"/>
        </g>
      </g>
    </g>
    <g transform="translate(1620.0, 390.0)">
      <circle id="ITEM_3_BG" r="50" fill="var(--accent-3)" stroke="var(--accent-3)" stroke-width="2" fill-opacity="0.4"/>
      <rect id="ITEM_3_TEXT_BG" x="-208.0" y="81.5" width="416.0" height="202.0" rx="22" fill="var(--panel)" fill-opacity="0.94" stroke="var(--primary-text)" stroke-opacity="0.12" stroke-width="1.5"/>
      <rect id="TIMELINE_SNAKE_ART_CARD_SHEEN_3" x="-208.0" y="81.5" width="416.0" height="202.0" rx="16" fill="url(#svg0af5eea0-timeline-snake-card-sheen)" opacity="0.78" stroke="var(--accent-3)" stroke-opacity="1.0"/>
      <text id="ITEM_3_HEAD" text-anchor="middle" font-weight="bold" font-size="27" fill="var(--accent-3)" x="0.0" y="97.5" data-bg-id="ITEM_3_TEXT_BG" fill-opacity="1.0" stroke="none" style="font-size: 31px; font-family: 'Segoe UI Variable Display', 'Aptos Display', 'Inter', 'Segoe UI', Helvetica, Arial, sans-serif; font-weight: 700; font-kerning: normal; font-feature-settings: &quot;kern&quot; 1, &quot;liga&quot; 1; letter-spacing:-0.4px;" data-final-font-size="31">
        <tspan x="0.0" dy="31.02px">Triangulated Bearings</tspan>
      </text>
      <rect id="ITEM_3_HEAD_FRAME" x="-190" y="97.5" width="380" height="45" fill="none"/>
      <text id="ITEM_3_BODY" text-anchor="middle" font-size="19.5" fill="var(--primary-text)" x="0.0" y="147.5" data-bg-id="ITEM_3_TEXT_BG" style="font-size: 23px; font-family: 'Segoe UI Variable Text', 'Aptos', 'Inter', 'Segoe UI', Helvetica, Arial, sans-serif; font-weight: 400; font-kerning: normal; font-feature-settings: &quot;kern&quot; 1, &quot;liga&quot; 1;" opacity="0.9" data-final-font-size="23">
        <tspan x="0.0" dy="31.82px">Accurate positions allow</tspan>
        <tspan x="0.0" dy="26.45px">for precise distance calculations</tspan>
      </text>
      <rect id="ITEM_3_BODY_FRAME" x="-190" y="147.5" width="380" height="120" fill="none"/>
      <circle id="TIMELINE_SNAKE_ART_MILESTONE_AURA_3" cx="0" cy="0" r="58" fill="url(#svg0af5eea0-universal-icon-aura)" opacity="0.82" stroke="var(--accent-3)" stroke-opacity="1.0" display="none" data-suppressed-decoration="redundant-badge-ring"/>
      <circle id="ITEM_3_PAD" cx="0" cy="0" r="39" fill="var(--icon-pad-bg)" stroke="var(--accent-3)" opacity="1" fill-opacity="0.9" stroke-width="2" stroke-opacity="0.72" data-badge-layer="pad"/>
      <circle id="ITEM_3_PAD_INNER" cx="0" cy="0" r="30.42" fill="var(--accent-3)" fill-opacity="0.12" stroke="none" data-badge-layer="tint"/>
      <circle cx="0" cy="0" r="31.2" fill="none" stroke="var(--accent-3)" stroke-width="3" stroke-dasharray="6 4" display="none" data-suppressed-decoration="redundant-badge-ring"/>
      <g id="ITEM_3_ICON" transform="translate(-30.0, -30.0)" data-icon-size="60" stroke-linecap="round" stroke-linejoin="round" data-badge-treatment="clean">
        <g transform="translate(-6.053333333333336,-6.0533333333333355) scale(3.0044444444444447)" vector-effect="non-scaling-stroke" stroke-width="2.43" stroke-linecap="round" stroke-linejoin="round" stroke-opacity="1.0">
          <path d="M7 21l4 -12m2 0l1.48 4.439m.949 2.847l1.571 4.714" vector-effect="non-scaling-stroke" fill="none" stroke="#f1f5f9"/>
          <path d="M12 7m-2 0a2 2 0 1 0 4 0a2 2 0 1 0 -4 0" vector-effect="non-scaling-stroke" fill="none" stroke="#f1f5f9"/>
          <path d="M4 12c1.526 2.955 4.588 5 8 5c3.41 0 6.473 -2.048 8 -5" vector-effect="non-scaling-stroke" fill="none" stroke="#f1f5f9"/>
          <path d="M12 5v-2" vector-effect="non-scaling-stroke" fill="none" stroke="#f1f5f9"/>
        </g>
      </g>
    </g>
    <g transform="translate(1620.0, 780.0)">
      <circle id="ITEM_4_BG" r="50" fill="var(--accent-1)" stroke="var(--accent-4)" stroke-width="2" fill-opacity="0.4"/>
      <rect id="ITEM_4_TEXT_BG" x="-208.0" y="81.5" width="416.0" height="202.0" rx="22" fill="var(--panel)" fill-opacity="0.94" stroke="var(--primary-text)" stroke-opacity="0.12" stroke-width="1.5"/>
      <rect id="TIMELINE_SNAKE_ART_CARD_SHEEN_4" x="-208.0" y="81.5" width="416.0" height="202.0" rx="16" fill="url(#svg0af5eea0-timeline-snake-card-sheen)" opacity="0.78" stroke="var(--accent-1)" stroke-opacity="1.0"/>
      <text id="ITEM_4_HEAD" text-anchor="middle" font-weight="bold" font-size="27" fill="var(--accent-1)" x="0.0" y="97.5" data-bg-id="ITEM_4_TEXT_BG" fill-opacity="1.0" stroke="none" style="font-size: 31px; font-family: 'Segoe UI Variable Display', 'Aptos Display', 'Inter', 'Segoe UI', Helvetica, Arial, sans-serif; font-weight: 700; font-kerning: normal; font-feature-settings: &quot;kern&quot; 1, &quot;liga&quot; 1; letter-spacing:-0.4px;" data-final-font-size="31">
        <tspan x="0.0" dy="31.02px">Independent Witnesses</tspan>
      </text>
      <rect id="ITEM_4_HEAD_FRAME" x="-190" y="97.5" width="380" height="45" fill="none"/>
      <text id="ITEM_4_BODY" text-anchor="middle" font-size="19.5" fill="var(--primary-text)" x="0.0" y="147.5" data-bg-id="ITEM_4_TEXT_BG" style="font-size: 23px; font-family: 'Segoe UI Variable Text', 'Aptos', 'Inter', 'Segoe UI', Helvetica, Arial, sans-serif; font-weight: 400; font-kerning: normal; font-feature-settings: &quot;kern&quot; 1, &quot;liga&quot; 1;" opacity="0.9" data-final-font-size="23">
        <tspan x="0.0" dy="31.82px">Separate teams record the same</tspan>
        <tspan x="0.0" dy="26.45px">phenomenon simultaneously</tspan>
      </text>
      <rect id="ITEM_4_BODY_FRAME" x="-190" y="147.5" width="380" height="120" fill="none"/>
      <circle id="TIMELINE_SNAKE_ART_MILESTONE_AURA_4" cx="0" cy="0" r="58" fill="url(#svg0af5eea0-universal-icon-aura)" opacity="0.82" stroke="var(--accent-1)" stroke-opacity="1.0" display="none" data-suppressed-decoration="redundant-badge-ring"/>
      <circle id="ITEM_4_PAD" cx="0" cy="0" r="39" fill="var(--icon-pad-bg)" stroke="var(--accent-1)" opacity="1" fill-opacity="0.9" stroke-width="2" stroke-opacity="0.72" data-badge-layer="pad"/>
      <circle id="ITEM_4_PAD_INNER" cx="0" cy="0" r="30.42" fill="var(--accent-1)" fill-opacity="0.12" stroke="none" data-badge-layer="tint"/>
      <circle cx="0" cy="0" r="31.2" fill="none" stroke="var(--accent-4)" stroke-width="3" stroke-dasharray="6 4" display="none" data-suppressed-decoration="redundant-badge-ring"/>
      <g id="ITEM_4_ICON" transform="translate(-30.0, -30.0)" data-icon-size="60" stroke-linecap="round" stroke-linejoin="round" data-badge-treatment="clean">
        <g transform="translate(-6.0533333333333355,-6.053333333333338) scale(3.0044444444444447)" vector-effect="non-scaling-stroke" fill="#f1f5f9" fill-opacity="1.0" stroke="none">
          <path fill="#f1f5f9" d="M3.69 9.12a.88.88 0 0 0-.65-.28c-.41 0-.72.19-.92.58s-.15.76.17 1.11q1.77 1.59 2.25 2.25c.41.56.61 1.38.61 2.44c0 1.31.5 2.28 1.5 2.95c.56.44 1.17.77 1.85.99v-3.89c0-.94-.33-1.72-.96-2.35m8.92.05c-.62.62-.96 1.39-.96 2.3v3.93c.96-.34 1.76-.87 2.42-1.57c.65-.7.98-1.47.98-2.41c0-1.13.19-1.94.57-2.44c.09-.16.26-.36.53-.61c.23-.25.47-.49.71-.71c.23-.21.46-.43.68-.65l.33-.28a.9.9 0 0 0 .28-.66c0-.28-.09-.53-.28-.73s-.42-.3-.72-.3s-.5.09-.69.28M12 20c.69 0 1.36-.09 2-.28v-3.57c0-.59-.18-1.05-.59-1.49Q12.795 14 12 14c-.53 0-1 .2-1.38.61c-.4.39-.62.85-.62 1.45v3.66c.64.19 1.31.28 2 .28M9 8.5c0 .83-.67 1.5-1.5 1.5S6 9.33 6 8.5S6.67 7 7.5 7S9 7.67 9 8.5m9 0c0 .83-.67 1.5-1.5 1.5S15 9.33 15 8.5S15.67 7 16.5 7s1.5.67 1.5 1.5m-4.5-3c0 .83-.67 1.5-1.5 1.5s-1.5-.67-1.5-1.5S11.17 4 12 4s1.5.67 1.5 1.5m0 5.5c0 .83-.67 1.5-1.5 1.5s-1.5-.67-1.5-1.5s.67-1.5 1.5-1.5s1.5.67 1.5 1.5" vector-effect="non-scaling-stroke" stroke="none"/>
        </g>
      </g>
    </g>
    <g transform="translate(960.0, 780.0)">
      <circle id="ITEM_5_BG" r="50" fill="var(--accent-2)" stroke="var(--accent-5)" stroke-width="2" fill-opacity="0.4"/>
      <rect id="ITEM_5_TEXT_BG" x="-208.0" y="81.5" width="416.0" height="202.0" rx="22" fill="var(--panel)" fill-opacity="0.94" stroke="var(--primary-text)" stroke-opacity="0.12" stroke-width="1.5"/>
      <rect id="TIMELINE_SNAKE_ART_CARD_SHEEN_5" x="-208.0" y="81.5" width="416.0" height="202.0" rx="16" fill="url(#svg0af5eea0-timeline-snake-card-sheen)" opacity="0.78" stroke="var(--accent-2)" stroke-opacity="1.0"/>
      <text id="ITEM_5_HEAD" text-anchor="middle" font-weight="bold" font-size="27" fill="var(--accent-2)" x="0.0" y="97.5" data-bg-id="ITEM_5_TEXT_BG" fill-opacity="1.0" stroke="none" style="font-size: 31px; font-family: 'Segoe UI Variable Display', 'Aptos Display', 'Inter', 'Segoe UI', Helvetica, Arial, sans-serif; font-weight: 700; font-kerning: normal; font-feature-settings: &quot;kern&quot; 1, &quot;liga&quot; 1; letter-spacing:-0.4px;" data-final-font-size="31">
        <tspan x="0.0" dy="31.02px">Radar Correlation</tspan>
      </text>
      <rect id="ITEM_5_HEAD_FRAME" x="-190" y="97.5" width="380" height="45" fill="none"/>
      <text id="ITEM_5_BODY" text-anchor="middle" font-size="19.5" fill="var(--primary-text)" x="0.0" y="147.5" data-bg-id="ITEM_5_TEXT_BG" style="font-size: 23px; font-family: 'Segoe UI Variable Text', 'Aptos', 'Inter', 'Segoe UI', Helvetica, Arial, sans-serif; font-weight: 400; font-kerning: normal; font-feature-settings: &quot;kern&quot; 1, &quot;liga&quot; 1;" opacity="0.9" data-final-font-size="23">
        <tspan x="0.0" dy="31.82px">Matching radar tracks confirm</tspan>
        <tspan x="0.0" dy="26.45px">reported movement and location</tspan>
      </text>
      <rect id="ITEM_5_BODY_FRAME" x="-190" y="147.5" width="380" height="120" fill="none"/>
      <circle id="TIMELINE_SNAKE_ART_MILESTONE_AURA_5" cx="0" cy="0" r="58" fill="url(#svg0af5eea0-universal-icon-aura)" opacity="0.82" stroke="var(--accent-2)" stroke-opacity="1.0" display="none" data-suppressed-decoration="redundant-badge-ring"/>
      <circle id="ITEM_5_PAD" cx="0" cy="0" r="39" fill="var(--icon-pad-bg)" stroke="var(--accent-2)" opacity="1" fill-opacity="0.9" stroke-width="2" stroke-opacity="0.72" data-badge-layer="pad"/>
      <circle id="ITEM_5_PAD_INNER" cx="0" cy="0" r="30.42" fill="var(--accent-2)" fill-opacity="0.12" stroke="none" data-badge-layer="tint"/>
      <circle cx="0" cy="0" r="31.2" fill="none" stroke="var(--accent-5)" stroke-width="3" stroke-dasharray="6 4" display="none" data-suppressed-decoration="redundant-badge-ring"/>
      <g id="ITEM_5_ICON" transform="translate(-30.0, -30.0)" data-icon-size="60" stroke-linecap="round" stroke-linejoin="round" data-badge-treatment="clean">
        <g transform="translate(-2.9979661016949173,-2.9979661016949173) scale(2.7498305084745764)" vector-effect="non-scaling-stroke" stroke-width="2.43" stroke-linecap="round" stroke-linejoin="round" stroke-opacity="1.0">
          <path d="M19.07 4.93A10 10 0 0 0 6.99 3.34" vector-effect="non-scaling-stroke" fill="none" stroke="#f1f5f9"/>
          <path d="M4 6h.01" vector-effect="non-scaling-stroke" fill="none" stroke="#f1f5f9"/>
          <path d="M2.29 9.62A10 10 0 1 0 21.31 8.35" vector-effect="non-scaling-stroke" fill="none" stroke="#f1f5f9"/>
          <path d="M16.24 7.76A6 6 0 1 0 8.23 16.67" vector-effect="non-scaling-stroke" fill="none" stroke="#f1f5f9"/>
          <path d="M12 18h.01" vector-effect="non-scaling-stroke" fill="none" stroke="#f1f5f9"/>
          <path d="M17.99 11.66A6 6 0 0 1 15.77 16.67" vector-effect="non-scaling-stroke" fill="none" stroke="#f1f5f9"/>
          <circle cx="12" cy="12" r="2" vector-effect="non-scaling-stroke" fill="none" stroke="#f1f5f9"/>
          <path d="m13.41 10.59 5.66-5.66" vector-effect="non-scaling-stroke" fill="none" stroke="#f1f5f9"/>
        </g>
      </g>
    </g>
    <g transform="translate(300.0, 780.0)">
      <circle id="ITEM_6_BG" r="50" fill="var(--accent-6)" stroke="var(--accent-6)" stroke-width="2" fill-opacity="0.4"/>
      <rect id="ITEM_6_TEXT_BG" x="-208.0" y="81.5" width="416.0" height="202.0" rx="22" fill="var(--panel)" fill-opacity="0.94" stroke="var(--primary-text)" stroke-opacity="0.12" stroke-width="1.5"/>
      <rect id="TIMELINE_SNAKE_ART_CARD_SHEEN_6" x="-208.0" y="81.5" width="416.0" height="202.0" rx="16" fill="url(#svg0af5eea0-timeline-snake-card-sheen)" opacity="0.78" stroke="var(--accent-6)" stroke-opacity="1.0"/>
      <text id="ITEM_6_HEAD" text-anchor="middle" font-weight="bold" font-size="27" fill="var(--accent-6)" x="0.0" y="97.5" data-bg-id="ITEM_6_TEXT_BG" fill-opacity="1.0" stroke="none" style="font-size: 31px; font-family: 'Segoe UI Variable Display', 'Aptos Display', 'Inter', 'Segoe UI', Helvetica, Arial, sans-serif; font-weight: 700; font-kerning: normal; font-feature-settings: &quot;kern&quot; 1, &quot;liga&quot; 1; letter-spacing:-0.4px;" data-final-font-size="31">
        <tspan x="0.0" dy="31.02px">Calibrated Sensors</tspan>
      </text>
      <rect id="ITEM_6_HEAD_FRAME" x="-190" y="97.5" width="380" height="45" fill="none"/>
      <text id="ITEM_6_BODY" text-anchor="middle" font-size="19.5" fill="var(--primary-text)" x="0.0" y="147.5" data-bg-id="ITEM_6_TEXT_BG" style="font-size: 23px; font-family: 'Segoe UI Variable Text', 'Aptos', 'Inter', 'Segoe UI', Helvetica, Arial, sans-serif; font-weight: 400; font-kerning: normal; font-feature-settings: &quot;kern&quot; 1, &quot;liga&quot; 1;" opacity="0.9" data-final-font-size="23">
        <tspan x="0.0" dy="31.82px">Instruments prove physical effects</tspan>
        <tspan x="0.0" dy="26.45px">beyond natural background levels</tspan>
      </text>
      <rect id="ITEM_6_BODY_FRAME" x="-190" y="147.5" width="380" height="120" fill="none"/>
      <circle id="TIMELINE_SNAKE_ART_MILESTONE_AURA_6" cx="0" cy="0" r="58" fill="url(#svg0af5eea0-universal-icon-aura)" opacity="0.82" stroke="var(--accent-6)" stroke-opacity="1.0" display="none" data-suppressed-decoration="redundant-badge-ring"/>
      <circle id="ITEM_6_PAD" cx="0" cy="0" r="39" fill="var(--icon-pad-bg)" stroke="var(--accent-6)" opacity="1" fill-opacity="0.9" stroke-width="2" stroke-opacity="0.72" data-badge-layer="pad"/>
      <circle id="ITEM_6_PAD_INNER" cx="0" cy="0" r="30.42" fill="var(--accent-6)" fill-opacity="0.12" stroke="none" data-badge-layer="tint"/>
      <circle cx="0" cy="0" r="31.2" fill="none" stroke="var(--accent-6)" stroke-width="3" stroke-dasharray="6 4" display="none" data-suppressed-decoration="redundant-badge-ring"/>
      <g id="ITEM_6_ICON" transform="translate(-30.0, -30.0)" data-icon-size="60" stroke-linecap="round" stroke-linejoin="round" data-badge-treatment="clean">
        <g transform="translate(-6.0533333333333355,-6.053333333333338) scale(3.0044444444444447)" vector-effect="non-scaling-stroke" fill="#f1f5f9" fill-opacity="1.0" stroke="none">
          <path fill="#f1f5f9" d="M4 4h16a2 2 0 0 1 2 2v12a2 2 0 0 1-2 2H4a2 2 0 0 1-2-2V6a2 2 0 0 1 2-2m0 2v12h7V6zm16 12V6h-1.24c.24.54.19 1.07.19 1.13c-.07.67-.54 1.37-.71 1.62l-2.33 2.55l3.32-.02l.01 1.22l-5.2-.03l-.04-1s3.05-3.23 3.2-3.52c.14-.28.71-1.95-.7-1.95c-1.23.05-1.09 1.3-1.09 1.3l-1.54.01s.01-.66.38-1.31H13v12h2.58l-.01-.86l.97-.01s.91-.16.92-1.05c.04-1-.81-1-.96-1c-.13 0-1.07.05-1.07.87h-1.52s.04-2.06 2.59-2.06c2.6 0 2.46 2.02 2.46 2.02s.04 1.25-1.11 1.72l.52.37zM8.92 16h-1.5v-5.8l-1.8.56V9.53l3.14-1.12h.16z" vector-effect="non-scaling-stroke" stroke="none"/>
        </g>
      </g>
    </g>
    <line id="PHX_SEQUENCE_MIDROUTE_ARROW_1" x1="958.0" y1="780.0" x2="902.0" y2="780.0" stroke="var(--muted-text)" opacity="0.92" stroke-width="5" stroke-linecap="round" marker-end="url(#svg0af5eea0-PHX_SEQUENCE_DIRECTION_ARROW)" data-direction-cue="forward"/>
    <line id="PHX_SEQUENCE_MIDROUTE_ARROW_2" x1="902.0" y1="390.0" x2="958.0" y2="390.0" stroke="var(--muted-text)" opacity="0.92" stroke-width="5" stroke-linecap="round" marker-end="url(#svg0af5eea0-PHX_SEQUENCE_DIRECTION_ARROW)" data-direction-cue="forward"/>
  </g>
  <text id="SOURCE_NOTE" x="134.0" y="1058.0" fill="var(--muted-text)" opacity="1" style="font-family: var(--font-family); font-size: 20px;">Source: National Archives Script for National Archives UFO files</text>
</svg>
