<?xml version='1.0' encoding='utf-8'?>
<svg xmlns="http://www.w3.org/2000/svg" width="1920" height="1080" viewBox="0 0 1920 1080" data-theme="dark" data-semantic-intent="taxonomy_list" data-relation-type="taxonomy" data-site-visual-identity="signal-cobalt">
  <style>
        @font-face {
            font-family: 'Inter';
            src: url('assets/fonts/Inter-Regular.ttf') format('truetype');
            font-weight: 400;
            font-style: normal;
            font-display: swap;
        }
        @font-face {
            font-family: 'Inter';
            src: url('assets/fonts/Inter-Bold.ttf') format('truetype');
            font-weight: 600;
            font-style: normal;
            font-display: swap;
        }
        @font-face {
            font-family: 'Inter';
            src: url('assets/fonts/Inter-Bold.ttf') format('truetype');
            font-weight: 800;
            font-style: normal;
            font-display: swap;
        }
        
:root {
    --background: #0f172a;
    --panel: #1e293b;
    --primary-text: #f1f5f9;
    --muted-text: #94a3b8;
    --inverse-text: #0f172a;
    --border: #334155;
    --shadow-color: #000000;
    --icon-pad-bg: #1e293b;
    --art-glow: #7dd3fc;
    --art-glow-opacity: 0.18;
    --art-sheen: #ffffff;
    --art-sheen-opacity: 0.18;
    --art-shadow: #000000;
    --art-shadow-opacity: 0.28;
    --art-muted-line: #64748b;
    --art-panel-tint: #1e293b;
    --semantic-risk: #f87171;
    --semantic-warning: #fb923c;
    --semantic-uncertain: #fbbf24;
    --semantic-evidence: #60a5fa;
    --semantic-claim: #c084fc;
    --semantic-positive: #4ade80;
    --semantic-outcome: #22d3ee;
    --font-family: 'Inter', 'Segoe UI', 'Kalam', Roboto, Helvetica, Arial, sans-serif;
    --radius-xl: 16px;
    --font-family-headline: 'Segoe UI Variable Display', 'Aptos Display', 'Inter', 'Segoe UI', Helvetica, Arial, sans-serif;
    --font-family-body: 'Segoe UI Variable Text', 'Aptos', 'Inter', 'Segoe UI', Helvetica, Arial, sans-serif;
    --font-heading: var(--font-family-headline);
    --font-body: var(--font-family-body);
    --font-size-h1: 64px;
    --font-size-h2: 42px;
    --font-size-h3: 29px;
    --font-size-body: 21px;
    --font-size-caption: 17px;
    --secondary-text: var(--muted-text);
    --panel-border: var(--border);
    --font-weight-normal: 400;
    --font-weight-medium: 500;
    --font-weight-semibold: 600;
    --font-weight-bold: 700;
    --spacing-gutter-pct: 0.07;
    --spacing-top-pct: 0.15;
    --spacing-bottom-pct: 0.07;
    --spacing-title-y-pct: 0.055;
    --accent-1: #93c5fd;
    --accent-2: #60a5fa;
    --accent-3: #818cf8;
    --accent-4: #a78bfa;
    --accent-5: #38bdf8;
    --accent-6: #fb923c;
}
:root[data-theme="dark"] {
    --background: #0f172a;
    --panel: #1e293b;
    --primary-text: #f1f5f9;
    --muted-text: #94a3b8;
    --inverse-text: #0f172a;
    --border: #334155;
    --shadow-color: #000000;
    --icon-pad-bg: #1e293b;
    --art-glow: #7dd3fc;
    --art-glow-opacity: 0.18;
    --art-sheen: #ffffff;
    --art-sheen-opacity: 0.18;
    --art-shadow: #000000;
    --art-shadow-opacity: 0.28;
    --art-muted-line: #64748b;
    --art-panel-tint: #1e293b;
    --semantic-risk: #f87171;
    --semantic-warning: #fb923c;
    --semantic-uncertain: #fbbf24;
    --semantic-evidence: #60a5fa;
    --semantic-claim: #c084fc;
    --semantic-positive: #4ade80;
    --semantic-outcome: #22d3ee;
    --accent-1: #93c5fd;
    --accent-2: #60a5fa;
    --accent-3: #818cf8;
    --accent-4: #a78bfa;
    --accent-5: #38bdf8;
    --accent-6: #fb923c;
}
:root[data-theme="light"] {
    --background: #f8fafc;
    --panel: #ffffff;
    --primary-text: #0f172a;
    --muted-text: #64748b;
    --inverse-text: #ffffff;
    --border: #e2e8f0;
    --shadow-color: #000000;
    --icon-pad-bg: #1e293b;
    --art-glow: #0891b2;
    --art-glow-opacity: 0.10;
    --art-sheen: #ffffff;
    --art-sheen-opacity: 0.34;
    --art-shadow: #0f172a;
    --art-shadow-opacity: 0.14;
    --art-muted-line: #94a3b8;
    --art-panel-tint: #f1f5f9;
    --semantic-risk: #b91c1c;
    --semantic-warning: #c2410c;
    --semantic-uncertain: #a16207;
    --semantic-evidence: #1d4ed8;
    --semantic-claim: #6d28d9;
    --semantic-positive: #15803d;
    --semantic-outcome: #0e7490;
    --accent-1: #1d4ed8;
    --accent-2: #2563eb;
    --accent-3: #4f46e5;
    --accent-4: #6d28d9;
    --accent-5: #0369a1;
    --accent-6: #c2410c;
}</style>
  <rect x="0" y="0" width="1.92E+3" height="1.08E+3" fill="#0f172a" stroke="none" id="programmatic_background"/>
  <line id="HEADER_DECOR" x1="960.0" x2="1080.0" y1="95.0" y2="95.0" stroke="var(--accent-1)" stroke-width="6" stroke-linecap="round"/>
  <defs>
    <pattern id="svg89e2d2f4-napkin-hatch" patternUnits="userSpaceOnUse" width="12" height="12">
      <path d="M -3 12 L 12 -3 M 0 15 L 15 0" fill="none" stroke="var(--primary-text)" stroke-width="1" stroke-opacity="0.05"/>
    </pattern>
    <filter id="svg89e2d2f4-shadow" x="-30%" y="-30%" width="160%" height="160%">
      <feDropShadow dx="0" dy="2" stdDeviation="3" flood-color="#000000" flood-opacity="0.08"/>
      <feDropShadow dx="0" dy="6" stdDeviation="10" flood-color="#000000" flood-opacity="0.12"/>
    </filter>
    <radialGradient id="svg89e2d2f4-universal-edge-vignette" cx="50%" cy="50%" r="72%">
      <stop offset="0%" stop-color="var(--background)" stop-opacity="0"/>
      <stop offset="72%" stop-color="var(--background)" stop-opacity="0.12"/>
      <stop offset="100%" stop-color="var(--primary-text)" stop-opacity="0.08"/>
    </radialGradient>
    <linearGradient id="svg89e2d2f4-universal-surface-sheen" x1="0%" y1="0%" x2="100%" y2="100%">
      <stop offset="0%" stop-color="var(--art-sheen)" stop-opacity="var(--art-sheen-opacity)"/>
      <stop offset="46%" stop-color="var(--art-sheen)" stop-opacity="0.035"/>
      <stop offset="100%" stop-color="var(--art-panel-tint)" stop-opacity="0.14"/>
    </linearGradient>
    <radialGradient id="svg89e2d2f4-universal-icon-aura" cx="50%" cy="42%" r="64%">
      <stop offset="0%" stop-color="var(--art-glow)" stop-opacity="var(--art-glow-opacity)"/>
      <stop offset="100%" stop-color="var(--background)" stop-opacity="0"/>
    </radialGradient>
    <radialGradient id="svg89e2d2f4-venn-center-glow" cx="50%" cy="50%" r="60%">
      <stop offset="0%" stop-color="var(--art-glow)" stop-opacity="var(--art-glow-opacity)"/>
      <stop offset="100%" stop-color="var(--background)" stop-opacity="0"/>
    </radialGradient>
    <linearGradient id="svg89e2d2f4-venn-label-sheen" x1="0%" y1="0%" x2="100%" y2="100%">
      <stop offset="0%" stop-color="var(--inverse-text)" stop-opacity="0.14"/>
      <stop offset="100%" stop-color="var(--background)" stop-opacity="0.12"/>
    </linearGradient>
    <filter id="svg89e2d2f4-text-glow" x="-20%" y="-20%" width="140%" height="140%">
      <feDropShadow dx="0" dy="0" stdDeviation="2" flood-color="#000000" flood-opacity="0.4"/>
    </filter>
    <marker id="svg89e2d2f4-arrowhead" markerWidth="10" markerHeight="7" refX="9" refY="3.5" orient="auto" markerUnits="strokeWidth">
      <polygon points="0 0, 10 3.5, 0 7" fill="var(--muted-text)" opacity="0.6"/>
    </marker>
  </defs>
  <rect width="100%" height="100%" fill="var(--background)" id="CANVAS_BG"/>
  <rect width="100%" height="100%" fill="url(#svg89e2d2f4-napkin-hatch)"/>
  <rect id="UNIVERSAL_EDGE_VIGNETTE" width="100%" height="100%" fill="url(#svg89e2d2f4-universal-edge-vignette)" opacity="0.62"/>
  <text id="TITLE" x="960.0" y="59" text-anchor="middle" font-weight="800" font-size="56" fill="#f1f5f9" style="font-size: 69px; font-family: 'Segoe UI Variable Display', 'Aptos Display', 'Inter', 'Segoe UI', Helvetica, Arial, sans-serif; font-weight: 800; font-kerning: normal; font-feature-settings: &quot;kern&quot; 1, &quot;liga&quot; 1; letter-spacing:-1.2px;" data-final-font-size="69">
    <tspan x="960.0" dy="70.47px">Limitations of the Halt Memorandum</tspan>
  </text>
  <rect id="TITLE_FRAME" x="134" y="35" width="1652" height="80" fill="none"/>
  <g id="DIAGRAM_MAIN" transform="translate(960, 620)">
    <!-- Circle backgrounds -->
    <circle id="ITEM_1_BG" cx="0" cy="-130" r="200" fill="var(--semantic-risk)" fill-opacity="0.35" stroke="var(--border)" stroke-width="2"/>
    <circle id="ITEM_2_BG" cx="130" cy="0" r="200" fill="var(--semantic-risk)" fill-opacity="0.35" stroke="var(--border)" stroke-width="2"/>
    <circle id="ITEM_3_BG" cx="0" cy="130" r="200" fill="var(--semantic-risk)" fill-opacity="0.35" stroke="var(--border)" stroke-width="2"/>
    <circle id="ITEM_4_BG" cx="-130" cy="0" r="200" fill="var(--accent-1)" fill-opacity="0.35" stroke="var(--border)" stroke-width="2"/>
    <!-- ITEM 1 - Top (y=-260 to be in non-overlap area) -->
    <circle id="ITEM_1_PAD" cx="0" cy="-260" r="50" fill="var(--icon-pad-bg)" stroke="var(--semantic-risk)" opacity="1" fill-opacity="0.9" stroke-width="2" stroke-opacity="0.72" data-badge-layer="pad"/>
    <circle id="ITEM_1_PAD_INNER" cx="0" cy="-260" r="39.00" fill="var(--semantic-risk)" fill-opacity="0.12" stroke="none" data-badge-layer="tint"/>
    <circle cx="0" cy="-260" r="40" fill="none" stroke="var(--accent-1)" stroke-width="3" stroke-dasharray="6 4" display="none" data-suppressed-decoration="redundant-badge-ring"/>
    <g id="ITEM_1_ICON" transform="translate(-30, -290)" data-icon-size="60" stroke-linecap="round" stroke-linejoin="round" data-badge-treatment="clean">
      <g transform="translate(-16.868421052631582,-14.473684210526315) scale(0.17105263157894737)" vector-effect="non-scaling-stroke" fill="#f1f5f9" fill-opacity="1.0" stroke="none">
        <path fill="#f1f5f9" d="M71 32v135h18V32zm256 0v135h18V32zm-208 95.604V167h18v-39.396zm256 0V167h18v-39.396zM57 185v99.27l16 16V487h110V300.27l16-16V185zm256 0v99.27l16 16V487h110V300.27l16-16V185zm-96 7v80h16.432v-80zm256 0v80h16.432v-80zm-393 7h96v18H80zm256 0h96v18h-96zM80 231h96v18H80zm256 0h96v18h-96zM80 263h96v18H80zm256 0h96v18h-96zm-224 41a24 24 0 0 1 24 24a24 24 0 0 1-24 24a24 24 0 0 1-24-24a24 24 0 0 1 24-24m256 0a24 24 0 0 1 24 24a24 24 0 0 1-24 24a24 24 0 0 1-24-24a24 24 0 0 1 24-24" vector-effect="non-scaling-stroke" stroke="none"/>
      </g>
    </g>
    <rect id="ITEM_1_TEXT_BG" x="-208.0" y="-226.0" width="416.0" height="190.0" rx="16" fill="var(--panel)" fill-opacity="0.94" stroke="var(--primary-text)" stroke-opacity="0.12" stroke-width="1.5"/>
    <rect x="-208.0" y="-226.0" width="416.0" height="190.0" rx="16" fill="url(#svg89e2d2f4-venn-label-sheen)" opacity="0.85"/>
    <text id="ITEM_1_HEAD" x="0.0" y="-210.0" text-anchor="middle" font-weight="bold" font-size="34" fill="var(--semantic-risk)" data-bg-id="ITEM_1_TEXT_BG" fill-opacity="1.0" stroke="none" style="font-size: 31px; font-family: 'Segoe UI Variable Display', 'Aptos Display', 'Inter', 'Segoe UI', Helvetica, Arial, sans-serif; font-weight: 700; font-kerning: normal; font-feature-settings: &quot;kern&quot; 1, &quot;liga&quot; 1; letter-spacing:-0.4px;" data-final-font-size="31">
      <tspan x="0.0" dy="31.52px">Mixed Sourcing</tspan>
    </text>
    <rect id="ITEM_1_HEAD_FRAME" x="-170" y="-210" width="340" height="46" fill="none"/>
    <text id="ITEM_1_BODY" x="0.0" y="-152.0" text-anchor="middle" font-size="20" fill="var(--primary-text)" data-bg-id="ITEM_1_TEXT_BG" style="font-size: 23px; font-family: 'Segoe UI Variable Text', 'Aptos', 'Inter', 'Segoe UI', Helvetica, Arial, sans-serif; font-weight: 400; font-kerning: normal; font-feature-settings: &quot;kern&quot; 1, &quot;liga&quot; 1;" data-final-font-size="23">
      <tspan x="0.0" dy="27.82px">Combines personal experience</tspan>
      <tspan x="0.0" dy="26.45px">with subordinate relay information</tspan>
    </text>
    <rect id="ITEM_1_BODY_FRAME" x="-190" y="-152" width="380" height="100" fill="none"/>
    <!-- ITEM 2 - Right (x=260 to be in non-overlap area) -->
    <circle id="ITEM_2_PAD" cx="260" cy="0" r="50" fill="var(--icon-pad-bg)" stroke="var(--semantic-risk)" opacity="1" fill-opacity="0.9" stroke-width="2" stroke-opacity="0.72" data-badge-layer="pad"/>
    <circle id="ITEM_2_PAD_INNER" cx="260" cy="0" r="39.00" fill="var(--semantic-risk)" fill-opacity="0.12" stroke="none" data-badge-layer="tint"/>
    <circle cx="260" cy="0" r="40" fill="none" stroke="var(--accent-2)" stroke-width="3" stroke-dasharray="6 4" display="none" data-suppressed-decoration="redundant-badge-ring"/>
    <g id="ITEM_2_ICON" transform="translate(230, -30)" data-icon-size="60" stroke-linecap="round" stroke-linejoin="round" data-badge-treatment="clean">
      <g transform="translate(-11.6,-12.250000000000004) scale(2.6)">
        <path d="M30.893 15C30.044 7.683 23.834 2 16.289 2H15.057C7.293 2 1 8.293 1 16.057C1 18.787 3.213 21 5.943 21H8.025C8.278 23.803 10.631 26 13.5 26H24C27.17 26 29.845 23.891 30.706 21C30.895 20.366 31 19.695 31 19V16.711C31 16.131 30.958 15.562 30.893 15Z" fill="#FF6DC6"/>
        <path d="M25 25.982V29.586C25 30.254 24.192 30.589 23.72 30.116L19.604 26L25 25.982Z" fill="#F70A8D"/>
        <path d="M10.178 7.536C10.285 7.503 10.367 7.407 10.377 7.287C10.45 6.417 10.508 5.544 10.5 4.659C10.221 5.413 10 6.177 9.79203 6.943C7.93903 7.238 6.17903 8.228 4.94903 9.671C3.66703 11.148 2.93203 13.106 3.05503 15C3.58403 13.192 4.45103 11.598 5.66503 10.315C6.87703 9.036 8.40603 8.087 10.122 7.553L10.178 7.536ZM19.682 5.159C19.412 4.594 18.935 4.134 18.372 3.822C17.81 3.502 17.152 3.349 16.5 3.341C15.848 3.351 15.191 3.504 14.629 3.824C14.067 4.135 13.589 4.595 13.318 5.159C14.427 4.616 15.441 4.334 16.5 4.341C17.559 4.336 18.57 4.617 19.682 5.159ZM11.055 15.098C10.75 15.192 10.459 15.325 10.176 15.477C10.166 15.385 10.154 15.293 10.133 15.203C10.035 14.761 9.79203 14.355 9.47503 14.026C8.83403 13.382 7.79803 13.091 7.00003 13.5C7.77503 13.902 8.30103 14.259 8.76803 14.732C9.08703 15.048 9.35203 15.396 9.61503 15.823C9.36503 16 9.12303 16.19 8.90403 16.404C8.30903 17.01 7.84303 17.749 7.59603 18.554C7.34303 19.354 7.29203 20.213 7.50003 21C7.90203 19.438 8.58103 18.134 9.61003 17.11C10.631 16.079 11.938 15.4 13.5 15C12.713 14.794 11.854 14.845 11.055 15.098ZM23.042 19.538C22.622 19.615 22.063 19.536 21.511 19.528L19.872 19.5C19.141 19.505 18.409 19.525 17.678 19.555C18.185 19.002 18.393 18.142 18 17.5C17.597 18.145 17.295 18.539 16.914 18.914C16.651 19.179 16.374 19.408 16.013 19.66C15.115 19.735 14.217 19.837 13.319 20C15.504 20.396 17.688 20.485 19.873 20.5L20.229 20.494C20.488 20.687 20.707 20.875 20.915 21.086C21.294 21.462 21.596 21.856 22.001 22.5C22.21 22.171 22.249 21.77 22.171 21.394C22.106 21.047 21.921 20.733 21.686 20.465L22.332 20.437C22.594 20.435 22.956 20.396 23.243 20.291C24.474 19.921 25.238 18.605 25.002 17.501C24.792 18.598 23.957 19.385 23.042 19.538ZM29.365 16.863C29.094 15.997 28.591 15.204 27.949 14.551C27.296 13.91 26.502 13.407 25.636 13.136C25.105 12.964 24.55 12.886 24.001 12.891C24.616 12.249 25.101 11.478 25.364 10.636C25.643 9.776 25.706 8.853 25.5 8C25.1 9.693 24.367 11.129 23.243 12.243C22.127 13.366 20.693 14.097 19 14.5C19.853 14.708 20.777 14.645 21.637 14.365C22.384 14.131 23.071 13.717 23.667 13.198C25.068 13.623 26.282 14.286 27.244 15.256C28.367 16.372 29.098 17.806 29.501 19.499C29.708 18.647 29.645 17.723 29.365 16.863Z" fill="#F70A8D"/>
      </g>
    </g>
    <rect id="ITEM_2_TEXT_BG" x="352.0" y="-66.0" width="416.0" height="202.0" rx="16" fill="var(--panel)" fill-opacity="0.94" stroke="var(--primary-text)" stroke-opacity="0.12" stroke-width="1.5"/>
    <rect x="352.0" y="-66.0" width="416.0" height="202.0" rx="16" fill="url(#svg89e2d2f4-venn-label-sheen)" opacity="0.85"/>
    <text id="ITEM_2_HEAD" x="370.0" y="-50.0" text-anchor="start" font-weight="bold" font-size="36" fill="var(--semantic-risk)" data-bg-id="ITEM_2_TEXT_BG" fill-opacity="1.0" stroke="none" style="font-size: 21px; font-family: 'Segoe UI Variable Display', 'Aptos Display', 'Inter', 'Segoe UI', Helvetica, Arial, sans-serif; font-weight: 700; font-kerning: normal; font-feature-settings: &quot;kern&quot; 1, &quot;liga&quot; 1; letter-spacing:-0.4px;" data-final-font-size="21">
      <tspan x="370.0" dy="17.65px">Retrospective</tspan>
      <tspan x="370.0" dy="24.15px">Drafting</tspan>
    </text>
    <rect id="ITEM_2_HEAD_FRAME" x="370" y="-50" width="220" height="50" fill="none"/>
    <text id="ITEM_2_BODY" x="370.0" y="0.0" text-anchor="start" font-size="20" fill="var(--primary-text)" data-bg-id="ITEM_2_TEXT_BG" style="font-size: 23px; font-family: 'Segoe UI Variable Text', 'Aptos', 'Inter', 'Segoe UI', Helvetica, Arial, sans-serif; font-weight: 400; font-kerning: normal; font-feature-settings: &quot;kern&quot; 1, &quot;liga&quot; 1;" data-final-font-size="23">
      <tspan x="370.0" dy="31.82px">Written from memory two weeks</tspan>
      <tspan x="370.0" dy="26.45px">after the events</tspan>
    </text>
    <rect id="ITEM_2_BODY_FRAME" x="370" y="0" width="380" height="120" fill="none"/>
    <!-- ITEM 3 - Bottom (y=260 to be in non-overlap area) -->
    <circle id="ITEM_3_PAD" cx="0" cy="220" r="50" fill="var(--icon-pad-bg)" stroke="var(--semantic-risk)" opacity="1" fill-opacity="0.9" stroke-width="2" stroke-opacity="0.72" data-badge-layer="pad"/>
    <circle id="ITEM_3_PAD_INNER" cx="0" cy="220" r="39.00" fill="var(--semantic-risk)" fill-opacity="0.12" stroke="none" data-badge-layer="tint"/>
    <circle cx="0" cy="220" r="40" fill="none" stroke="var(--accent-3)" stroke-width="3" stroke-dasharray="6 4" display="none" data-suppressed-decoration="redundant-badge-ring"/>
    <g id="ITEM_3_ICON" transform="translate(-30, 190)" data-icon-size="60" stroke-linecap="round" stroke-linejoin="round" data-badge-treatment="clean">
      <g transform="translate(-12.305084745762713,-12.305084745762713) scale(3.5254237288135593)" vector-effect="non-scaling-stroke" stroke-width="2.43" stroke-linecap="round" stroke-linejoin="round" stroke-opacity="1.0">
        <path d="M15 2H6a2 2 0 0 0-2 2v16a2 2 0 0 0 2 2h12a2 2 0 0 0 2-2V7Z" vector-effect="non-scaling-stroke" fill="none" stroke="#f1f5f9"/>
        <path d="M14 2v4a2 2 0 0 0 2 2h4" vector-effect="non-scaling-stroke" fill="none" stroke="#f1f5f9"/>
      </g>
    </g>
    <rect id="ITEM_3_TEXT_BG" x="-208.0" y="256.0" width="416.0" height="202.0" rx="16" fill="var(--panel)" fill-opacity="0.94" stroke="var(--primary-text)" stroke-opacity="0.12" stroke-width="1.5"/>
    <rect x="-208.0" y="256.0" width="416.0" height="202.0" rx="16" fill="url(#svg89e2d2f4-venn-label-sheen)" opacity="0.85"/>
    <text id="ITEM_3_HEAD" x="0.0" y="272.0" text-anchor="middle" font-weight="bold" font-size="36" fill="var(--semantic-risk)" data-bg-id="ITEM_3_TEXT_BG" fill-opacity="1.0" stroke="none" style="font-size: 28px; font-family: 'Segoe UI Variable Display', 'Aptos Display', 'Inter', 'Segoe UI', Helvetica, Arial, sans-serif; font-weight: 700; font-kerning: normal; font-feature-settings: &quot;kern&quot; 1, &quot;liga&quot; 1; letter-spacing:-0.4px;" data-final-font-size="28">
      <tspan x="0.0" dy="30.30px">Chronological Shifts</tspan>
    </text>
    <rect id="ITEM_3_HEAD_FRAME" x="-140" y="272" width="280" height="48" fill="none"/>
    <text id="ITEM_3_BODY" x="0.0" y="322.0" text-anchor="middle" font-size="20" fill="var(--primary-text)" data-bg-id="ITEM_3_TEXT_BG" style="font-size: 23px; font-family: 'Segoe UI Variable Text', 'Aptos', 'Inter', 'Segoe UI', Helvetica, Arial, sans-serif; font-weight: 400; font-kerning: normal; font-feature-settings: &quot;kern&quot; 1, &quot;liga&quot; 1;" data-final-font-size="23">
      <tspan x="0.0" dy="31.82px">Dates do not align</tspan>
      <tspan x="0.0" dy="26.45px">with independent police logs</tspan>
    </text>
    <rect id="ITEM_3_BODY_FRAME" x="-190" y="322" width="380" height="120" fill="none"/>
    <!-- ITEM 4 - Left (x=-260 to be in non-overlap area) -->
    <circle id="ITEM_4_PAD" cx="-260" cy="0" r="50" fill="var(--icon-pad-bg)" stroke="var(--accent-1)" opacity="1" fill-opacity="0.9" stroke-width="2" stroke-opacity="0.72" data-badge-layer="pad"/>
    <circle id="ITEM_4_PAD_INNER" cx="-260" cy="0" r="39.00" fill="var(--accent-1)" fill-opacity="0.12" stroke="none" data-badge-layer="tint"/>
    <circle cx="-260" cy="0" r="40" fill="none" stroke="var(--accent-4)" stroke-width="3" stroke-dasharray="6 4" display="none" data-suppressed-decoration="redundant-badge-ring"/>
    <g id="ITEM_4_ICON" transform="translate(-290, -30)" data-icon-size="60" stroke-linecap="round" stroke-linejoin="round" data-badge-treatment="clean">
      <g transform="translate(-12.333333333333332,-13.0) scale(0.16666666666666666)" vector-effect="non-scaling-stroke" fill="#f1f5f9" fill-opacity="1.0" stroke="none">
        <path fill="#f1f5f9" d="M283.406 26c-31.262-.124-67.23 14.174-87.406 24.813c-14.187 7.48-63.924 37.248-106.594 45.5c-55.05 10.643-86.878 63.63-54.594 90.156c53.676 44.1 55.533 101.236 15.844 143.186c-43.832 46.33 1.16 113.166 63.844 105.625s89.117.543 121.03 32.44c41.408 41.38 131.457 24.757 153.595-32.595c10.275-26.614 24.304-56.372 58.594-68.563c40.316-14.328 52.335-59.373 26.217-90.625c-19.376-23.183-21.61-47.184 4.875-95.468c21.756-39.664 4.657-83.827-55.937-80.44c-45.002 2.515-64.425-27.456-97.156-59.374C314.866 30.074 299.78 26.066 283.405 26zm-20.312 76.188c87.992 0 159.53 71.508 159.53 159.5c0 87.994-71.538 159.53-159.53 159.53s-159.53-71.536-159.53-159.53c0-87.995 71.538-159.5 159.53-159.5m0 18.687c-77.892 0-140.813 62.918-140.813 140.813s62.922 140.843 140.814 140.843c77.89 0 140.844-62.948 140.844-140.842c0-77.892-62.953-140.813-140.844-140.813zm-9.344 19.188h18.688v12.562l32.218 9.78l-32 9.72h-.78v97.47H253.75V172.53l-33.344-10.124l33.344-10.125zm-51.875 40.343c9.892-.023 20.71 2.28 32.313 7.156v20.594c-14.94-7.682-27.267-9.843-36.657-8.844c-11.21 1.194-18.696 6.513-23.468 14.125c-9.34 14.902-7.106 39.607 13.907 56.157h-25.657c-14.936-20.91-15.937-47.15-4.063-66.094c7.603-12.13 20.8-20.992 37.313-22.75c2.064-.22 4.16-.34 6.312-.344m122.438 0c2.153.005 4.28.124 6.343.344c16.513 1.758 29.71 10.62 37.313 22.75c11.872 18.944 10.872 45.183-4.064 66.094H338.22c21.01-16.55 23.245-41.255 13.905-56.156c-4.77-7.613-12.258-12.932-23.47-14.125c-9.69-1.032-22.498 1.294-38.092 9.593v-20.75c12.145-5.308 23.443-7.774 33.75-7.75m-71.438 16.875q.078.049.156.095l-.155.25v-.344zm-81.563 91h183.563v18.44h-34.28v17.81h34.28v18.69H171.312v-18.69h36.47v-17.81h-36.47zm55.157 18.44v17.81h27.28v-17.81zm45.968 0v17.81h29.468v-17.81h-29.47zm-9.157 50.03c7.64 0 13.845 6.204 13.845 13.844s-6.204 13.844-13.844 13.844s-13.842-6.204-13.842-13.844s6.203-13.844 13.843-13.844zM457 410.5c-7.208.234-14.82 2.62-21.5 7.688c-34.04 25.825-9.88 74.987 31.938 40.437c32.292-26.678 13.11-48.89-10.438-48.125" vector-effect="non-scaling-stroke" stroke="none"/>
      </g>
    </g>
    <rect id="ITEM_4_TEXT_BG" x="-768.0" y="-66.0" width="416.0" height="202.0" rx="16" fill="var(--panel)" fill-opacity="0.94" stroke="var(--primary-text)" stroke-opacity="0.12" stroke-width="1.5"/>
    <rect x="-768.0" y="-66.0" width="416.0" height="202.0" rx="16" fill="url(#svg89e2d2f4-venn-label-sheen)" opacity="0.85"/>
    <text id="ITEM_4_HEAD" x="-370.0" y="-50.0" text-anchor="end" font-weight="bold" font-size="36" fill="var(--accent-1)" data-bg-id="ITEM_4_TEXT_BG" fill-opacity="1.0" stroke="none" style="font-size: 31px; font-family: 'Segoe UI Variable Display', 'Aptos Display', 'Inter', 'Segoe UI', Helvetica, Arial, sans-serif; font-weight: 700; font-kerning: normal; font-feature-settings: &quot;kern&quot; 1, &quot;liga&quot; 1; letter-spacing:-0.4px;" data-final-font-size="31">
      <tspan x="-370.0" dy="33.52px">Hybrid Status</tspan>
    </text>
    <rect id="ITEM_4_HEAD_FRAME" x="-590" y="-50" width="220" height="50" fill="none"/>
    <text id="ITEM_4_BODY" x="-370.0" y="0.0" text-anchor="end" font-size="20" fill="var(--primary-text)" data-bg-id="ITEM_4_TEXT_BG" style="font-size: 23px; font-family: 'Segoe UI Variable Text', 'Aptos', 'Inter', 'Segoe UI', Helvetica, Arial, sans-serif; font-weight: 400; font-kerning: normal; font-feature-settings: &quot;kern&quot; 1, &quot;liga&quot; 1;" data-final-font-size="23">
      <tspan x="-370.0" dy="31.82px">Functions as notification rather</tspan>
      <tspan x="-370.0" dy="26.45px">than detailed investigation</tspan>
    </text>
    <rect id="ITEM_4_BODY_FRAME" x="-750" y="0" width="380" height="120" fill="none"/>
  </g>
  <text id="SOURCE_NOTE" x="134.0" y="1058.0" fill="var(--muted-text)" opacity="1" style="font-family: var(--font-family); font-size: 20px;">Source: National Archives Script for National Archives UFO files</text>
</svg>
